<?xml version="1.0" standalone="no"?>
<!DOCTYPE svg PUBLIC "-//W3C//DTD SVG 1.1//EN" "http://www.w3.org/Graphics/SVG/1.1/DTD/svg11.dtd" >
<svg xmlns="http://www.w3.org/2000/svg" xmlns:xlink="http://www.w3.org/1999/xlink" version="1.1">
<metadata>
Created by FontForge 20170731 at Fri Jun 16 00:30:34 2017
 By Aleksey,,,
Copyright (c) 1981, 1982, 1983, 1989 and 1993, Linotype Library GmbH or its affiliated Linotype-Hell companies. All rights reserved.

The digitally encoded machine readable software for producing the Typefaces licensed to you is now the property of Heidelberger Druckmaschinen AG and its licensors, and may not be reproduced, used, displayed, modified, disclosed or transferred without the express written approval of Heidelberger Druckmaschinen AG.

Copyright (c) 1988, 1990, 1993 Adobe Systems Incorporated. All Rights Reserved.
</metadata>
<defs>
<font id="Optima-Regular" horiz-adv-x="556" >
  <font-face 
    font-family="Optima"
    font-weight="400"
    font-stretch="normal"
    units-per-em="1000"
    panose-1="2 0 5 3 6 0 0 2 0 4"
    ascent="800"
    descent="-200"
    x-height="473"
    cap-height="685"
    bbox="-330 -268 1000 919"
    underline-thickness="50"
    underline-position="-225"
    unicode-range="U+0008-FB02"
  />
<missing-glyph horiz-adv-x="500" 
d="M442 504h-384v-496h384v496zM450 512v-512h-400v512h400z" />
    <glyph glyph-name="fi" unicode="fi" 
d="M300 669q-24 15 -55 15q-22 0 -37.5 -8.5t-25.5 -22t-14.5 -31.5t-4.5 -38q0 -18 3.5 -52t8.5 -65q26 0 51.5 0.5t51.5 0.5q-1 -5 -1.5 -10t-0.5 -10t0.5 -10t1.5 -10q-26 1 -51.5 2t-51.5 1q0 -109 0.5 -216.5t3.5 -216.5q-11 2 -22 2h-21q-21 0 -44 -2q7 109 8 215.5
t1 217.5q-18 0 -36 -1l-36 -2q1 5 1.5 10t0.5 10t-0.5 10t-1.5 10q18 0 36.5 -0.5t35.5 -0.5q0 29 6 63t17.5 67t27.5 62.5t36 49.5q18 18 45.5 32t56.5 14q11 0 20 -3q-1 -20 -2.5 -40t-1.5 -40zM378 647q0 21 15 36t36 15t36 -15t15 -36t-15 -36t-36 -15t-36 15t-15 36z
M392 286q0 45 -1.5 94.5t-6.5 92.5q28 -5 45 -5t45 5q-5 -43 -6.5 -92.5t-1.5 -94.5v-104q0 -45 1.5 -94.5t6.5 -89.5q-23 2 -45 2t-45 -2q5 40 6.5 89.5t1.5 94.5v104z" />
    <glyph glyph-name="fl" unicode="fl" 
d="M300 669q-24 15 -55 15q-22 0 -37.5 -8.5t-25.5 -22t-14.5 -31.5t-4.5 -38q0 -18 3.5 -52t8.5 -65q26 0 51.5 0.5t51.5 0.5q-1 -5 -1.5 -10t-0.5 -10t0.5 -10t1.5 -10q-26 1 -51.5 2t-51.5 1q0 -109 0.5 -216.5t3.5 -216.5q-11 2 -22 2h-21q-21 0 -44 -2q7 109 8 215.5
t1 217.5q-18 0 -36 -1l-36 -2q1 5 1.5 10t0.5 10t-0.5 10t-1.5 10q18 0 36.5 -0.5t35.5 -0.5q0 29 6 63t17.5 67t27.5 62.5t36 49.5q18 18 45.5 32t56.5 14q11 0 20 -3q-1 -20 -2.5 -40t-1.5 -40zM398 464q0 34 -0.5 74t-1.5 79t-2.5 74.5t-3.5 60.5q28 -5 45 -5t45 5
q-2 -25 -3.5 -60.5t-2.5 -74.5t-1.5 -79t-0.5 -74v-181q0 -34 0.5 -74t1.5 -79t2.5 -74t3.5 -58q-23 2 -45 2t-45 -2q2 23 3.5 58t2.5 74t1.5 79t0.5 74v181z" />
    <glyph glyph-name=".notdef" horiz-adv-x="500" 
d="M442 504h-384v-496h384v496zM450 512v-512h-400v512h400z" />
    <glyph glyph-name=".null" horiz-adv-x="0" 
 />
    <glyph glyph-name="nonmarkingreturn" horiz-adv-x="333" 
 />
    <glyph glyph-name=".notdef.001" horiz-adv-x="0" 
 />
    <glyph glyph-name=".notdef.001" horiz-adv-x="0" 
 />
    <glyph glyph-name=".notdef.001" horiz-adv-x="0" 
 />
    <glyph glyph-name="space" unicode="&#x9;" horiz-adv-x="278" 
 />
    <glyph glyph-name="space" unicode=" " horiz-adv-x="278" 
 />
    <glyph glyph-name="space" unicode="&#xd;" horiz-adv-x="278" 
 />
    <glyph glyph-name="exclam" unicode="!" horiz-adv-x="333" 
d="M110 45q0 23 17 40t40 17t40 -17t17 -40t-17 -38.5t-40 -15.5t-40 15.5t-17 38.5zM157 171q-4 47 -8.5 99.5t-9 104t-8 98.5t-6.5 84.5t-5 62t-2 29.5q0 27 15 38t34 11t34 -11t15 -38q0 -8 -4 -57t-9.5 -119t-12.5 -150.5t-13 -151.5h-20z" />
    <glyph glyph-name="quotedbl" unicode="&#x22;" horiz-adv-x="333" 
d="M267 698v-288h-52v288h52zM118 698v-288h-52v288h52z" />
    <glyph glyph-name="numbersign" unicode="#" 
d="M242 432l-43 -208h115l43 208h-115zM132 432q8 16 13.5 40.5t5.5 41.5h73q8 38 13 63t8 41.5t5 25.5t3 15q11 -3 21 -3q11 0 21 3q-3 -5 -5 -11.5t-6 -21t-9.5 -41t-14.5 -71.5h114q8 38 13 63t8 41.5t5 25.5t3 15q11 -3 21 -3q11 0 21 3q-3 -5 -5 -11.5t-6 -21t-9.5 -41
t-14.5 -71.5h74q-7 -16 -13 -41t-6 -41h-73l-43 -208h75q-7 -16 -13 -41t-6 -41h-73q-8 -40 -13 -65.5t-8 -41.5t-5 -24t-3 -11h-10.5h-10.5h-10.5h-10.5q2 3 4 9t5.5 20.5t9.5 41t16 71.5h-114q-8 -40 -13 -65.5t-8 -41.5t-5 -24t-3 -11h-10.5h-10.5h-10.5h-10.5q2 3 4 9
t5.5 20.5t9.5 41t16 71.5h-74q8 16 13.5 40.5t5.5 41.5h73l43 208h-75z" />
    <glyph glyph-name="dollar" unicode="$" 
d="M265 304q-45 17 -77.5 34.5t-54.5 39t-32.5 49t-10.5 63.5q0 73 47 121.5t128 58.5q0 20 -1.5 40.5t-6.5 37.5q17 -5 26 -5t26 5q-5 -18 -6 -37.5t-1 -38.5q33 0 57 -4.5t42 -11.5t31 -15t23 -15q-9 -17 -15 -35t-12 -45h-12q-5 13 -13 28t-21.5 28t-33 22.5t-46.5 10.5
v-256q43 -17 76.5 -33.5t57 -37t35.5 -46.5t12 -62q0 -37 -12 -71.5t-35.5 -62.5t-57 -47t-76.5 -26q0 -29 1 -56.5t6 -55.5q-17 5 -26 5t-26 -5q5 23 6.5 51t1.5 56q-5 -1 -9 -1h-6h-12q-48 0 -88 11.5t-77 40.5q9 22 12.5 40t6.5 45h12q18 -32 38 -52t40.5 -31.5
t41.5 -15.5t41 -4v283zM265 633q-43 -7 -70 -38.5t-27 -77.5q0 -48 24.5 -77t72.5 -47v240zM302 27q49 11 76 49.5t27 87.5q0 17 -3.5 32t-14 30t-31 31t-54.5 33v-263z" />
    <glyph glyph-name="percent" unicode="%" horiz-adv-x="889" 
d="M606 695q15 -5 24 -5q8 0 23 5l-373 -731q-15 5 -23 5q-9 0 -24 -5zM599 150q0 -28 5 -53.5t16 -45t27.5 -31.5t38.5 -12q23 0 39 12t27 31.5t16 45t5 53.5t-5 53.5t-16 45t-27 31.5t-39 12q-22 0 -38.5 -12t-27.5 -31.5t-16 -45t-5 -53.5zM525 150q0 36 11.5 66
t32.5 52.5t51 35t66 12.5t66 -12.5t51 -35t32.5 -52.5t11.5 -66t-11.5 -66.5t-32.5 -52t-51 -33t-66 -11.5t-66 11.5t-51 33t-32.5 52t-11.5 66.5zM116 506q0 -28 5 -53.5t16 -45t27.5 -31.5t38.5 -12q23 0 39 12t27 31.5t16 45t5 53.5t-5 53.5t-16 45t-27 31.5t-39 12
q-22 0 -38.5 -12t-27.5 -31.5t-16 -45t-5 -53.5zM42 506q0 36 11.5 66t32.5 52.5t51 35t66 12.5t66 -12.5t51 -35t32.5 -52.5t11.5 -66t-11.5 -66t-32.5 -52.5t-51 -35t-66 -12.5t-66 12.5t-51 35t-32.5 52.5t-11.5 66z" />
    <glyph glyph-name="ampersand" unicode="&#x26;" horiz-adv-x="722" 
d="M153 169q0 -27 11 -52.5t30.5 -45t46.5 -31t59 -11.5q51 0 87 18.5t71 53.5q-51 60 -97 119t-91 122q-55 -33 -86 -72t-31 -101zM186 522q0 32 11.5 59t32 47.5t48.5 32t62 11.5q58 0 95.5 -28.5t37.5 -83.5q0 -28 -13 -54t-33.5 -48.5t-44.5 -41t-46 -31.5
q45 -58 88 -113.5t88 -104.5q36 51 65.5 97.5t53.5 100.5q6 -13 16.5 -22.5t21.5 -17.5q-31 -48 -62 -93t-73 -93l128 -141q-16 2 -32 2h-32h-28.5t-28.5 -2q-8 11 -24.5 33.5t-38.5 48.5q-44 -44 -94.5 -69.5t-121.5 -25.5q-39 0 -73.5 9.5t-60.5 30.5t-41.5 52.5
t-15.5 73.5q0 33 14 64.5t38.5 60t57.5 51.5t72 39q-29 42 -48 80t-19 76zM421 561q0 36 -21.5 59.5t-58.5 23.5q-39 0 -62 -27t-23 -67q0 -30 17.5 -70t45.5 -74q51 32 76.5 74.5t25.5 80.5z" />
    <glyph glyph-name="quotesingle" unicode="'" horiz-adv-x="278" 
d="M165 698v-288h-52v288h52z" />
    <glyph glyph-name="parenleft" unicode="(" horiz-adv-x="278" 
d="M242 680q-38 -48 -61.5 -95t-36.5 -95.5t-17.5 -100t-4.5 -108.5t4.5 -108.5t18 -100t37 -94t60.5 -93.5l-20 -18q-81 87 -121.5 193t-40.5 221q0 55 10.5 111t31 109.5t50.5 103.5t70 93l20 -18v0z" />
    <glyph glyph-name="parenright" unicode=")" horiz-adv-x="278" 
d="M36 -115q37 48 60.5 93.5t36.5 94t18 100t5 108.5t-5 108.5t-18 100t-36.5 95.5t-60.5 95l20 18q81 -87 121.5 -194.5t40.5 -222.5q0 -111 -41 -219.5t-121 -194.5l-20 18v0z" />
    <glyph glyph-name="asterisk" unicode="*" horiz-adv-x="444" 
d="M194 684q11 -4 29 -4t29 4l-16 -155l125 92q2 -16 10 -30t20 -22l-142 -64l141 -66q-10 -8 -18.5 -21t-10.5 -29l-126 88l17 -152q-12 4 -29 4t-29 -4l14 152l-122 -89q-2 17 -10 30t-19 21l140 65l-144 65q10 8 19.5 22.5t9.5 29.5l126 -92l-14 155v0z" />
    <glyph glyph-name="plus" unicode="+" horiz-adv-x="606" 
d="M277 279v227h52v-227h227v-52h-227v-227h-52v227h-227v52h227z" />
    <glyph glyph-name="comma" unicode="," horiz-adv-x="278" 
d="M107 75q4 13 14 25.5t30 12.5q12 0 24.5 -8t12.5 -26q0 -12 -5 -22l-10 -20l-125 -209l-18 7l77 240v0z" />
    <glyph glyph-name="hyphen" unicode="-" horiz-adv-x="333" 
d="M291 262v-62h-249v62h249z" />
    <glyph glyph-name="period" unicode="." horiz-adv-x="278" 
d="M82 45q0 23 17 40t40 17t40 -17t17 -40t-17 -38.5t-40 -15.5t-40 15.5t-17 38.5z" />
    <glyph glyph-name="slash" unicode="/" horiz-adv-x="278" 
d="M251 703q17 -5 26 -5t26 5l-276 -723q-17 5 -26 5q-6 0 -23 -5l273 723v0z" />
    <glyph glyph-name="zero" unicode="0" 
d="M44 328q0 71 12 133.5t39.5 109t72.5 74t110 27.5q72 0 117.5 -27.5t71.5 -74t35.5 -109t9.5 -133.5q0 -69 -14 -131t-42.5 -109t-72.5 -74t-105 -27q-72 0 -117.5 26t-71.5 72.5t-35.5 109t-9.5 133.5zM126 328q0 -66 7.5 -123t25.5 -99t47 -66t72 -24t72 24t47 66
t25.5 99t7.5 123t-7.5 123t-25.5 99t-47 66t-72 24t-72 -22t-47 -63t-25.5 -98.5t-7.5 -128.5z" />
    <glyph glyph-name="one" unicode="1" 
d="M124 542q-11 20 -30 32v7q57 23 116.5 50.5t111.5 53.5l7 -5q-4 -66 -6 -130.5t-2 -130.5v-167q0 -66 2 -129.5t6 -124.5q-12 2 -23.5 2h-23.5h-23.5t-23.5 -2q5 62 6.5 125t1.5 129v356z" />
    <glyph glyph-name="two" unicode="2" 
d="M64 573q32 51 76 75t107 24q39 0 74 -10t60.5 -32t40.5 -55t15 -80q0 -34 -8 -63.5t-23.5 -57.5t-39 -56.5t-55.5 -60.5l-44 -44t-50.5 -51.5t-48.5 -52.5t-39 -48h95q72 0 127.5 2.5t97.5 5.5q-5 -22 -5 -37q0 -14 5 -34q-54 2 -107 2h-107h-107.5t-107.5 -2v12
q70 69 121.5 121.5t87.5 94.5t58.5 76t35.5 64.5t17.5 60t4.5 63.5q0 74 -33.5 109.5t-78.5 35.5q-32 0 -55 -11.5t-38 -28t-23 -35.5t-11 -34l-7 -2l-35 49v0z" />
    <glyph glyph-name="three" unicode="3" 
d="M79 612q20 20 55.5 40t90.5 20q39 0 74 -9t61 -27t41 -46t15 -67q0 -36 -13 -64.5t-32.5 -49t-43.5 -33.5t-46 -19v-6q26 -2 55 -9.5t54 -25t41.5 -46.5t16.5 -74q0 -46 -18.5 -84.5t-52 -66.5t-80.5 -43t-104 -15q-52 0 -88 9.5t-63 22.5q4 8 7.5 26.5t4.5 33.5l6 4
q9 -10 22 -22t30.5 -22t38 -16.5t44.5 -6.5q38 0 67.5 12t50.5 34t32 53t11 68q0 41 -10.5 69.5t-29 46t-44.5 25.5t-57 8q-11 0 -23.5 -2t-21.5 -4q1 5 1.5 10.5t0.5 10.5t-0.5 10.5t-1.5 10.5q20 -4 45 -4q35 0 57 14.5t34.5 37t17 49.5t4.5 52q0 32 -9.5 55.5t-24.5 38.5
t-34 22t-39 7q-42 0 -71.5 -24.5t-40.5 -55.5l-7 -2l-23 54v0z" />
    <glyph glyph-name="four" unicode="4" 
d="M331 574q-21 -29 -53 -74.5t-66 -94t-64.5 -93.5t-47.5 -74h233v336h-2zM21 197q44 62 91.5 129t92 130t82 117.5t61.5 92.5q20 -5 34 -5t32 5q-3 -66 -5 -148.5t-2 -169.5v-110q29 0 55 2.5t43 5.5q-5 -20 -5 -33t5 -33q-17 3 -43 4.5t-55 1.5v-42q0 -39 2 -80.5
t4 -65.5q-20 2 -44 2t-44 -2q2 26 5 67t3 79v42q-23 0 -66.5 -0.5t-91 -1.5t-90.5 -2.5t-64 -2.5v18z" />
    <glyph glyph-name="five" unicode="5" 
d="M158 374q20 11 43.5 18.5t68.5 7.5q44 0 79.5 -15t60.5 -41t38.5 -60t13.5 -72q0 -47 -18 -88.5t-51 -72t-78.5 -47.5t-101.5 -17q-45 0 -86.5 7.5t-73.5 29.5v8q5 13 9 29.5t6 28.5h7q9 -18 24.5 -32t35 -23.5t41 -14t41.5 -4.5q30 0 57.5 11t48.5 34t34 58t13 82
q0 42 -12 72t-31.5 49t-44.5 27.5t-52 8.5q-42 0 -68 -13.5t-35 -19.5l-11 7q7 39 8.5 82.5t1.5 86.5q0 42 -1.5 86.5t-6.5 78.5l9 6q17 -3 56 -6q44 -3 122 -3q48 0 85 0.5t55 1.5l5 -4q-4 -13 -5.5 -27.5t-1.5 -28.5t1 -17q-22 4 -58.5 6.5t-76.5 4t-77 2t-60 0.5
l-14 -227v0z" />
    <glyph glyph-name="six" unicode="6" 
d="M417 189q0 76 -31.5 124t-95.5 48q-29 0 -54.5 -12.5t-44 -35.5t-29.5 -54.5t-11 -69.5t10 -70t28 -55t42.5 -35.5t52.5 -12.5q32 0 56.5 12.5t41.5 35.5t26 55t9 70zM412 633q-11 3 -23 5t-29 2q-39 0 -70 -16.5t-55 -44t-41 -63t-28 -73.5t-16 -74.5t-5 -67.5h2
q10 17 24 34t33.5 31t45 23t58.5 9q26 0 60 -8t64.5 -29t51.5 -57.5t21 -93.5q0 -50 -15.5 -91.5t-44.5 -71t-70 -45t-92 -15.5q-43 0 -83 14.5t-70.5 48.5t-48.5 88.5t-18 133.5q0 83 19.5 156.5t57 128t93 85.5t127.5 30q17 0 25.5 -0.5t16.5 -2.5l15 -32z" />
    <glyph glyph-name="seven" unicode="7" 
d="M507 641q-91 -154 -183.5 -318.5t-174.5 -324.5q-16 2 -38 2q-19 0 -36 -2q47 73 98.5 157.5t99.5 165t89 150.5t67 116q-45 0 -132.5 -1t-216.5 -9q4 20 4 45q0 24 -4 44q42 -3 74.5 -5t60.5 -3q23 0 63.5 -1t78.5 -1h47q31 0 54 0.5t49 0.5v-16v0z" />
    <glyph glyph-name="eight" unicode="8" 
d="M413 184q0 37 -9.5 67.5t-27 53t-42.5 35t-56 12.5t-56 -12.5t-42.5 -35t-27 -53t-9.5 -67.5t9.5 -67.5t27 -53t42.5 -35t56 -12.5t56 12.5t42.5 35t27 53t9.5 67.5zM387 512q0 26 -6 49t-19.5 40.5t-33.5 28t-49 10.5q-28 0 -48.5 -10.5t-33.5 -28t-19 -40.5t-6 -49
q0 -25 6 -48.5t19 -41t33.5 -28t48.5 -10.5q29 0 49 10.5t33.5 28t19.5 41t6 48.5zM55 179q0 61 33.5 112t111.5 77v7q-19 4 -38.5 15.5t-35.5 29t-26 41.5t-10 52q0 32 13.5 60.5t38 50.5t59 35t77.5 13q50 0 86 -12.5t59 -32.5t34.5 -46.5t11.5 -55.5q0 -48 -28.5 -88.5
t-83.5 -58.5v-7q17 -3 42 -12.5t47.5 -29t38.5 -50.5t16 -77q0 -50 -17.5 -90t-48 -68.5t-71 -42.5t-86.5 -14q-47 0 -88 11.5t-71 36.5t-47 61t-17 83z" />
    <glyph glyph-name="nine" unicode="9" 
d="M403 484q0 69 -36.5 112.5t-96.5 43.5t-96.5 -48.5t-36.5 -133.5q0 -87 33 -124.5t90 -37.5q35 0 61.5 16t44.5 42t27.5 60t9.5 70zM106 57q21 -19 46 -30t53 -11q54 0 92.5 30t62.5 78.5t35.5 108.5t11.5 120h-2q-23 -42 -62.5 -68t-99.5 -26q-91 0 -142.5 51.5
t-51.5 147.5q0 46 15.5 85t44.5 67.5t70 45t92 16.5q45 0 85.5 -15.5t71 -50t49 -89t18.5 -133.5q0 -83 -20 -156t-58 -127t-92.5 -84t-124.5 -30q-26 0 -47 4.5t-32 8.5q-3 11 -8.5 27t-11.5 27z" />
    <glyph glyph-name="colon" unicode=":" horiz-adv-x="278" 
d="M82 45q0 23 17 40t40 17t40 -17t17 -40t-17 -38.5t-40 -15.5t-40 15.5t-17 38.5zM82 411q0 23 17 40t40 17t40 -17t17 -40t-17 -40t-40 -17t-40 17t-17 40z" />
    <glyph glyph-name="semicolon" unicode=";" horiz-adv-x="278" 
d="M82 411q0 23 17 40t40 17t40 -17t17 -40t-17 -40t-40 -17t-40 17t-17 40zM107 75q4 13 14 25.5t30 12.5q12 0 24.5 -8t12.5 -26q0 -12 -5 -22l-10 -20l-125 -209l-18 7z" />
    <glyph glyph-name="less" unicode="&#x3c;" horiz-adv-x="606" 
d="M556 516v-52l-459 -211l459 -211v-50l-506 236v52z" />
    <glyph glyph-name="equal" unicode="=" horiz-adv-x="606" 
d="M50 130v52h506v-52h-506zM50 324v52h506v-52h-506z" />
    <glyph glyph-name="greater" unicode="&#x3e;" horiz-adv-x="606" 
d="M509 253l-459 211v52l506 -238v-52l-506 -234v50z" />
    <glyph glyph-name="question" unicode="?" horiz-adv-x="389" 
d="M125 45q0 23 17 40t40 17t40 -17t17 -40t-17 -38.5t-40 -15.5t-40 15.5t-17 38.5zM80 665q20 12 44 22.5t59 10.5q36 0 63.5 -10.5t46.5 -28.5t28.5 -42t9.5 -51q0 -35 -13 -64.5t-33 -54.5t-43 -47.5t-43 -44.5t-33 -45t-13 -49q0 -20 13 -39.5t39 -19.5q12 0 21 3.5
t13 5.5l6 -4q-4 -5 -7.5 -13t-4.5 -15q-15 -5 -35 -5q-12 0 -30.5 6t-35.5 19t-29 34t-12 52q0 33 12.5 60.5t32 51t41.5 44.5t41.5 42.5t32 45t12.5 50.5q0 20 -7.5 35t-19.5 25.5t-27.5 16t-31.5 5.5q-27 0 -50.5 -13t-40.5 -33z" />
    <glyph glyph-name="at" unicode="@" horiz-adv-x="800" 
d="M476 425q0 32 -11.5 53.5t-49.5 21.5q-28 0 -50 -19.5t-37 -48.5t-22.5 -64t-7.5 -65q0 -46 12.5 -69.5t48.5 -23.5q29 0 51 24t36.5 57.5t22 70.5t7.5 63zM558 522q-20 -93 -31 -147t-16.5 -82.5t-6.5 -39t-1 -17.5q0 -17 9 -26t24 -9q20 0 42.5 14.5t42 40.5t32.5 61.5
t13 76.5q0 49 -11.5 90.5t-39 71.5t-73.5 47t-115 17q-60 0 -111 -24.5t-88 -67t-58 -100t-21 -123.5q0 -60 19 -105t52 -75t79 -45t100 -15q36 0 69 7.5t61.5 19.5t53 26.5t43.5 28.5l-3 -32q-13 -12 -35.5 -27t-54 -28.5t-71.5 -22.5t-87 -9q-49 0 -100 18.5t-93 57
t-68.5 97t-26.5 137.5q0 59 24 115.5t69 100.5t108.5 71t142.5 27q82 0 136 -20.5t86.5 -54t46 -76.5t13.5 -87q0 -54 -18 -98.5t-46 -76t-62 -49t-66 -17.5q-42 0 -53.5 19.5t-11.5 52.5h-2q-9 -13 -20.5 -25.5t-25 -23t-29.5 -17t-35 -6.5q-108 0 -108 134q0 50 14 91
t38.5 71t57 46.5t69.5 16.5q31 0 53.5 -15t25.5 -49h2l10 54h52z" />
    <glyph glyph-name="A" unicode="A" horiz-adv-x="667" 
d="M207 309q26 0 54 -1t54 -1q28 0 56 0.5t56 1.5l-111 254zM650 -2q-14 2 -26.5 2h-26.5h-26.5t-26.5 -2q-7 23 -19 55.5t-26.5 68t-29.5 72t-28 69.5q-32 1 -65 1.5t-66 0.5q-31 0 -61 -0.5t-61 -1.5q-32 -78 -58 -148.5t-39 -116.5q-17 2 -37 2t-37 -2q81 175 158 348
t155 352h19q24 -58 52 -125.5t57 -136.5t58 -137t54.5 -126.5t46 -104.5t33.5 -70z" />
    <glyph glyph-name="B" unicode="B" horiz-adv-x="611" 
d="M180 239q0 -51 2 -101t4 -101q19 -2 45 -3.5t53 -1.5q32 0 61.5 11t51.5 32.5t35 53t13 71.5q0 43 -15.5 70.5t-44.5 43t-69.5 21.5t-90.5 6h-45v-102zM234 378q35 0 69.5 7t61.5 23.5t43.5 44t16.5 69.5q0 41 -15 65.5t-38 38t-52 18t-58 4.5q-26 0 -44 -1.5t-32 -3.5
q-2 -48 -4 -95t-2 -95v-75h54zM98 427q0 66 -2.5 130t-5.5 128q26 -2 53 -3.5t53 -1.5t53 2.5t53 2.5q43 0 81 -6.5t67 -23t46 -44.5t17 -70q0 -74 -46.5 -116t-121.5 -59v-2q89 -4 140.5 -43t51.5 -125q0 -56 -23 -94t-60 -61.5t-81.5 -33t-88.5 -9.5q-24 0 -48.5 1
t-48.5 1h-48.5t-48.5 -2q3 64 5.5 127.5t2.5 129.5v172z" />
    <glyph glyph-name="C" unicode="C" horiz-adv-x="667" 
d="M615 39q-9 -8 -28.5 -17.5t-47 -17t-61.5 -13.5t-71 -6q-79 0 -146 22.5t-115.5 68.5t-76 112.5t-27.5 151.5t27.5 151.5t77 112.5t118.5 70t152 24q66 0 120.5 -13.5t96.5 -32.5q-8 -14 -13 -38t-8 -40l-6 -2q-10 12 -28 27t-42 29t-54 23.5t-66 9.5q-59 0 -109.5 -19
t-88 -58.5t-58.5 -100t-21 -143.5t21 -143.5t58.5 -100t88 -58.5t109.5 -19q36 0 66.5 9t56 21.5t46 27t34.5 25.5l4 -4l-9 -59v0z" />
    <glyph glyph-name="D" unicode="D" horiz-adv-x="778" 
d="M98 426q0 66 -2.5 129.5t-5.5 129.5q38 -2 75.5 -3.5t75.5 -1.5t75.5 2.5t75.5 2.5q88 0 150.5 -23t102.5 -65.5t58.5 -104t18.5 -138.5q0 -100 -34.5 -168.5t-88 -110.5t-118 -59.5t-123.5 -17.5q-34 0 -67 1t-67 1h-67t-67 -2q3 62 5.5 126t2.5 130v172zM180 254
q0 -108 6 -212q21 -5 57 -7.5t74 -2.5q55 0 110 13t98.5 49t71 98.5t27.5 161.5q0 87 -21.5 143t-59 88.5t-89.5 45t-114 12.5q-45 0 -84 -3t-70 -7q-3 -48 -4.5 -100.5t-1.5 -106.5v-172z" />
    <glyph glyph-name="E" unicode="E" horiz-adv-x="500" 
d="M98 427q0 66 -2.5 130t-5.5 128q45 -2 89.5 -3.5t89.5 -1.5t89 1.5t89 3.5q-3 -15 -3 -30t3 -30q-32 2 -58.5 4t-56 4t-64.5 3.5t-84 1.5q-1 -32 -2.5 -61t-1.5 -66q0 -39 0.5 -76t0.5 -56q44 0 79 1t64 2.5t53.5 3t46.5 3.5q-3 -15 -3 -31q0 -15 3 -30q-26 3 -60.5 5
t-69 2.5t-65 1t-48.5 0.5q0 -9 -0.5 -19.5t-0.5 -26.5v-39v-60q0 -57 0.5 -94t1.5 -56h70q38 0 74.5 1.5t69 4t56.5 7.5q-2 -7 -2.5 -15.5t-0.5 -15.5q0 -16 3 -26q-45 2 -89.5 2h-90.5h-91t-91 -2q3 64 5.5 127.5t2.5 129.5v172v0z" />
    <glyph glyph-name="F" unicode="F" horiz-adv-x="500" 
d="M98 426q0 66 -2.5 129.5t-5.5 129.5q45 -2 89.5 -3.5t89.5 -1.5t91 1.5t100 3.5q-3 -15 -3 -30t3 -30q-27 3 -65 5.5t-77.5 4t-76 2.5t-60.5 1q-1 -35 -1.5 -67t-0.5 -64q0 -35 0.5 -64.5t0.5 -61.5q66 0 130.5 2t127.5 8q-4 -15 -4 -30t4 -30q-25 3 -56.5 4.5t-65.5 2.5
t-69 1h-67v-85q0 -66 2.5 -130t5.5 -126q-23 2 -49 2t-49 -2q3 62 5.5 126t2.5 130v172v0z" />
    <glyph glyph-name="G" unicode="G" horiz-adv-x="778" 
d="M671 563q-15 18 -37.5 36t-50 31.5t-61 22t-71.5 8.5q-62 0 -115.5 -19t-93 -58.5t-62 -100t-22.5 -143.5q0 -73 20 -132t58.5 -99.5t94 -62.5t125.5 -22q21 0 44 2t44.5 6t40 10t31.5 14q1 30 1.5 60t0.5 61q0 35 -1.5 70t-3.5 67q25 -5 48 -5q11 0 22 1t21 4
q-2 -23 -3 -72.5t-1 -130.5q0 -20 0.5 -40.5t0.5 -40.5q-21 -8 -52.5 -16.5t-67 -14t-71 -10t-64.5 -4.5q-89 0 -160.5 21.5t-121.5 66.5t-77 112t-27 155q0 85 28 151.5t79 112.5t123.5 70t160.5 24q51 0 90.5 -5.5t70 -14.5t53.5 -19t41 -19q-8 -14 -14.5 -36t-8.5 -41
h-12v0z" />
    <glyph glyph-name="H" unicode="H" horiz-adv-x="778" 
d="M598 426q0 66 -2.5 129.5t-5.5 129.5q13 -2 25 -3.5t24 -1.5t24 1.5t25 3.5q-3 -66 -5.5 -129.5t-2.5 -129.5v-172q0 -66 2.5 -130t5.5 -126q-23 2 -49 2t-49 -2q3 62 5.5 126t2.5 130v90q-54 1 -104.5 1.5t-104.5 0.5t-104.5 -0.5t-104.5 -1.5v-90q0 -66 2.5 -130
t5.5 -126q-23 2 -49 2t-49 -2q3 62 5.5 126t2.5 130v172q0 66 -2.5 129.5t-5.5 129.5q13 -2 25 -3.5t24 -1.5t24 1.5t25 3.5q-3 -66 -5.5 -129.5t-2.5 -129.5v-35q54 -1 104.5 -2t104.5 -1t104.5 1t104.5 2v35v0z" />
    <glyph glyph-name="I" unicode="I" horiz-adv-x="278" 
d="M98 426q0 66 -2.5 129.5t-5.5 129.5q13 -2 25 -3.5t24 -1.5t24 1.5t25 3.5q-3 -66 -5.5 -129.5t-2.5 -129.5v-172q0 -66 2.5 -130t5.5 -126q-23 2 -49 2t-49 -2q3 62 5.5 126t2.5 130v172v0z" />
    <glyph glyph-name="J" unicode="J" horiz-adv-x="278" 
d="M-27 -113q42 0 67 19.5t38 54.5t16.5 83t3.5 107v275q0 66 -2.5 129.5t-5.5 129.5q13 -2 25 -3.5t24 -1.5t24 1.5t25 3.5q-3 -66 -5.5 -129.5t-2.5 -129.5q0 -45 0.5 -93t1 -94.5t1 -89.5t0.5 -79q0 -45 -14.5 -82.5t-41.5 -66.5t-64.5 -45.5t-81.5 -16.5l-8 28v0z" />
    <glyph glyph-name="K" unicode="K" horiz-adv-x="611" 
d="M90 -2q3 62 5.5 126t2.5 130v172q0 66 -2.5 129.5t-5.5 129.5q13 -2 25 -3.5t24 -1.5t24 1.5t25 3.5q-3 -66 -5.5 -129.5t-2.5 -129.5v-55q0 -8 6 -8q4 0 14 9q35 30 73.5 68t77.5 79t77 83.5t73 82.5q11 -2 21 -3.5t20 -1.5q12 0 24 1.5t24 3.5q-35 -30 -79 -71
t-88.5 -84t-85 -84.5t-67.5 -72.5q81 -91 163.5 -185.5t167.5 -189.5q-15 2 -30 2h-30h-27.5t-27.5 -2q-36 41 -79.5 94t-85 102.5t-75 89t-49.5 55.5q-8 8 -12 8q-5 0 -5 -6v-87q0 -66 2.5 -130t5.5 -126q-23 2 -49 2t-49 -2z" />
    <glyph glyph-name="L" unicode="L" horiz-adv-x="500" 
d="M98 426q0 66 -2.5 129.5t-5.5 129.5q13 -2 25 -3.5t24 -1.5t24 1.5t25 3.5q-3 -66 -5.5 -129.5t-2.5 -129.5q0 -126 1 -218.5t2 -165.5q71 0 136 1.5t140 11.5q-5 -18 -5 -30q0 -11 5 -27q-46 2 -92 2h-92h-92.5t-92.5 -2q3 62 5.5 126t2.5 130v172v0z" />
    <glyph glyph-name="M" unicode="M" horiz-adv-x="889" 
d="M162 698q69 -142 139.5 -276t147.5 -275q10 19 29 54.5t44 81.5t53.5 99.5t58 108.5t58.5 108t54 99h13q11 -96 20.5 -185.5t19.5 -176t20 -171t22 -167.5q-12 2 -23.5 2h-23.5h-23.5t-23.5 -2q-11 133 -22 258t-27 255h-2q-69 -126 -135.5 -250.5t-126.5 -260.5h-9
q-60 126 -125.5 252.5t-131.5 258.5h-2q-7 -62 -15.5 -134.5t-15.5 -143t-12 -133t-5 -102.5q-16 2 -35 2t-35 -2q13 81 27 171t27 181t24 179.5t19 168.5h17v0z" />
    <glyph glyph-name="N" unicode="N" horiz-adv-x="778" 
d="M661 -15q-115 133 -245 272.5t-260 277.5q-1 -28 -2 -75t-1 -128q0 -21 0.5 -52t1 -65t1.5 -69t2 -65t2 -52.5t2 -30.5q-16 2 -35 2q-20 0 -37 -2q2 10 4.5 37t4.5 64.5t4.5 81.5t4 88t2.5 86t1 75q0 96 -0.5 165t-2.5 103h16q61 -66 130.5 -141.5t138 -149t130 -139
t107.5 -111.5v136q0 105 -1.5 204.5t-6.5 187.5q20 -5 34 -5q12 0 32 5q-2 -22 -4.5 -66t-5 -94t-4.5 -98t-2 -77v-60q0 -34 0.5 -71t1 -74.5t1 -70t0.5 -56.5v-33h-14v0z" />
    <glyph glyph-name="O" unicode="O" horiz-adv-x="833" 
d="M42 340q0 85 27.5 151.5t77 112.5t118.5 70t151 24q83 0 152 -24t118.5 -70t77 -112.5t27.5 -151.5t-27.5 -151.5t-77 -112.5t-118.5 -68.5t-152 -22.5q-82 0 -151 22.5t-118.5 68.5t-77 112.5t-27.5 151.5zM693 340q0 83 -21 143.5t-58.5 100t-88 58.5t-109.5 19
q-58 0 -108.5 -19t-88 -58.5t-58.5 -100t-21 -143.5t21 -143.5t58.5 -100t88 -58.5t108.5 -19q59 0 109.5 19t88 58.5t58.5 100t21 143.5z" />
    <glyph glyph-name="P" unicode="P" 
d="M180 351q34 -8 71 -8q31 0 64 7t60.5 25.5t45 51t17.5 83.5q0 43 -12 70t-33.5 42t-52.5 20.5t-70 5.5h-90v-297zM98 426q0 66 -2.5 129.5t-5.5 129.5q24 -2 48.5 -3.5t48.5 -1.5q12 0 29 1t34.5 1.5t33.5 1.5t27 1q15 0 37 -1t46.5 -6t48.5 -15t43.5 -29t31.5 -47.5
t12 -70.5q0 -66 -28.5 -107t-70 -64t-88 -31t-82.5 -8q-23 0 -42 0.5t-39 2.5v-55q0 -66 2.5 -130t5.5 -126q-23 2 -49 2t-49 -2q3 62 5.5 126t2.5 130v172z" />
    <glyph glyph-name="Q" unicode="Q" horiz-adv-x="833" 
d="M42 340q0 85 27.5 151.5t77 112.5t118.5 70t151 24q83 0 152 -24t118.5 -70t77 -112.5t27.5 -151.5q0 -70 -19 -127.5t-53.5 -102t-83 -73.5t-108.5 -40q54 -43 109.5 -86t116.5 -86q-26 -2 -48 -15t-30 -26q-55 51 -111 101t-119 101q-5 -1 -15 -1h-14q-82 0 -151 22.5
t-118.5 68.5t-77 112.5t-27.5 151.5zM693 340q0 83 -21 143.5t-58.5 100t-88 58.5t-109.5 19q-58 0 -108.5 -19t-88 -58.5t-58.5 -100t-21 -143.5t21 -143.5t58.5 -100t88 -58.5t108.5 -19q59 0 109.5 19t88 58.5t58.5 100t21 143.5z" />
    <glyph glyph-name="R" unicode="R" horiz-adv-x="611" 
d="M98 426q0 66 -2.5 129.5t-5.5 129.5q29 -2 57 -3.5t57 -1.5t57 2.5t57 2.5q42 0 80 -8t66.5 -26.5t45 -48.5t16.5 -75q0 -48 -21.5 -82.5t-52.5 -57t-66.5 -35t-64.5 -16.5q12 -15 33 -42t47 -59.5t54 -68t54 -68t49 -59.5t37 -41q-15 2 -30 2h-30h-29t-29 -2
q-15 21 -45.5 63t-67.5 90t-75.5 95.5t-70.5 80.5h-38v-73q0 -66 2.5 -130t5.5 -126q-23 2 -49 2t-49 -2q3 62 5.5 126t2.5 130v172zM180 369q14 -3 30.5 -4t36.5 -1q31 0 64.5 7t61.5 24.5t46.5 47t18.5 74.5q0 39 -14.5 64.5t-37.5 40.5t-50 20.5t-53 5.5q-35 0 -58 -1.5
t-39 -3.5q-2 -55 -4 -109t-2 -108v-57z" />
    <glyph glyph-name="S" unicode="S" horiz-adv-x="500" 
d="M76 128q8 -18 21.5 -36.5t33 -33.5t45.5 -24.5t58 -9.5q33 0 59.5 11.5t45 31t28.5 46t10 56.5q0 46 -23.5 73t-58.5 45t-75.5 33t-75.5 37.5t-58.5 57.5t-23.5 94q0 42 15 76.5t43.5 59.5t68.5 39t90 14q48 0 83 -11.5t65 -35.5q-9 -17 -15 -36t-12 -48h-12
q-5 14 -13.5 30.5t-23 30.5t-34.5 23.5t-48 9.5t-51.5 -9t-41 -25.5t-27 -39.5t-9.5 -50q0 -47 23.5 -74t58.5 -45.5t75.5 -33t75.5 -35.5t58.5 -54t23.5 -88q0 -46 -16.5 -87t-48 -71.5t-77 -47t-103.5 -16.5q-62 0 -100.5 16.5t-64.5 37.5q9 23 12.5 41.5t6.5 47.5h12v0z
" />
    <glyph glyph-name="T" unicode="T" 
d="M237 426q0 104 -3 207q-26 0 -54.5 -0.5t-57 -2t-55 -3.5t-47.5 -5q5 18 5 32q0 11 -5 31q66 -2 129 -3.5t129 -1.5t129 1.5t129 3.5q-5 -20 -5 -32q0 -13 5 -31q-21 3 -47.5 5t-55 3.5t-57 2t-54.5 0.5q-3 -103 -3 -207v-172q0 -66 2.5 -130t5.5 -126q-23 2 -49 2
t-49 -2q3 62 5.5 126t2.5 130v172v0z" />
    <glyph glyph-name="U" unicode="U" horiz-adv-x="778" 
d="M619 360q0 142 -1 219t-5 106q11 -2 21 -3.5t20 -1.5q13 0 30 5q-3 -35 -6 -83.5t-5 -104t-4 -114t-3 -113.5q-1 -67 -20.5 -120t-55.5 -90t-88.5 -56t-120.5 -19q-150 0 -218 68t-68 215q0 47 2.5 83.5t2.5 74.5q0 84 -2 149t-4 110q12 -2 26 -3.5t26 -1.5
q11 0 21.5 1.5t21.5 3.5q-2 -22 -4 -57.5t-4 -80.5t-3 -97t-1 -108q0 -34 1 -70.5t7 -71t19.5 -66t38.5 -55t63 -37t94 -13.5q55 0 92.5 16t61.5 42t37.5 60t19.5 71t7 74t1 68z" />
    <glyph glyph-name="V" unicode="V" horiz-adv-x="667" 
d="M296 -2q-23 59 -56 142t-70.5 175t-77 188t-75.5 182q14 -2 27 -3.5t25 -1.5t25 1.5t27 3.5q22 -66 48.5 -138.5t56 -147.5t60.5 -152t63 -153q18 41 39 91.5t42.5 105t42.5 111t40.5 108.5t35.5 97t27 78q22 -5 37 -5t37 5q-78 -174 -150 -345t-138 -342q-16 2 -33 2
q-20 0 -33 -2z" />
    <glyph glyph-name="W" unicode="W" horiz-adv-x="1000" 
d="M229 -2q-8 25 -24.5 79t-37.5 122t-44 142.5t-44 142t-38.5 121.5t-27.5 80q13 -2 25 -3.5t25 -1.5t25 1.5t25 3.5q19 -76 37 -142.5t38.5 -135t44 -144t53.5 -170.5h2q9 27 25 74.5t35 105t40 119.5t39 118.5t32 103t20 71.5q20 -5 33 -5t33 5q7 -27 21.5 -74
t32.5 -104.5t38.5 -119.5t39.5 -119t34.5 -103t24.5 -72h2q7 22 21.5 68.5t33 105t38 123t37 123t31 104.5t18.5 68q9 -2 17.5 -3.5t17.5 -1.5t17.5 1.5t17.5 3.5q-10 -23 -29 -76t-42.5 -121t-49 -144t-49 -144.5t-42 -123t-27.5 -78.5q-16 2 -34 2t-34 -2
q-45 139 -89 279.5t-95 290.5h-2q-8 -23 -21.5 -61.5t-30 -86.5t-35.5 -103t-38 -111t-37 -110t-33 -98q-16 2 -35 2t-35 -2z" />
    <glyph glyph-name="X" unicode="X" horiz-adv-x="611" 
d="M319 411q46 68 85.5 132.5t81.5 141.5q22 -5 37 -5t37 5q-57 -79 -112 -155t-106 -157q57 -97 114.5 -190t117.5 -185q-14 2 -28 2h-28h-28t-28 -2q-40 73 -79.5 148.5t-90.5 151.5q-51 -76 -95 -151.5t-86 -148.5q-10 2 -19.5 2h-17.5h-17.5t-19.5 -2q60 83 117 168
t114 173q-52 88 -104.5 173t-107.5 173q14 -2 27 -3.5t27 -1.5t27 1.5t27 3.5q33 -67 71 -132.5t84 -141.5z" />
    <glyph glyph-name="Y" unicode="Y" horiz-adv-x="611" 
d="M265 279q-10 17 -29.5 49.5t-43 72t-49.5 83t-49.5 83t-42.5 71t-29 47.5q14 -2 27.5 -3.5t27.5 -1.5t27.5 1.5t27.5 3.5q45 -87 91.5 -171t98.5 -175q23 36 48 79t50 88t48 90.5t43 88.5q25 -5 39 -5t39 5q-48 -73 -86 -132t-67 -107t-51 -86.5t-38 -69.5q0 -37 0.5 -79
t1.5 -82.5t2.5 -75t3.5 -55.5q-23 2 -49 2t-49 -2q6 52 7 126t1 155z" />
    <glyph glyph-name="Z" unicode="Z" horiz-adv-x="611" 
d="M23 12q39 54 82.5 116t87.5 124.5t86 123t77 112t61 90t39 58.5q-18 1 -36 1.5t-34 0.5q-36 0 -80 -1t-88.5 -3.5t-85 -5t-68.5 -5.5q5 18 5 31t-5 31q49 -4 155 -4.5t262 -0.5q27 0 54 1.5t53 3.5v-18q-20 -21 -56 -69t-79.5 -109t-90.5 -129t-89 -130t-74.5 -111.5
t-47.5 -73.5q24 -2 43.5 -2.5t39.5 -0.5q38 0 88.5 1.5t100.5 4.5t94.5 6t70.5 6q-2 -9 -3.5 -17t-1.5 -16q0 -13 5 -29q-36 1 -66.5 1.5t-58.5 0.5h-55h-55h-89h-96.5t-86.5 -0.5t-58 -1.5v14v0z" />
    <glyph glyph-name="bracketleft" unicode="[" horiz-adv-x="333" 
d="M138 407q0 140 -6 276q23 -3 51 -3q12 0 27.5 0.5l31 1t29.5 1t24 0.5q-1 -4 -1.5 -7t-0.5 -7q0 -2 0.5 -6t1.5 -9q-21 1 -44.5 1.5t-46.5 0.5q-4 -63 -6 -124.5t-2 -124.5v-252q0 -63 2 -123t6 -123q23 0 46.5 0.5t44.5 1.5q-1 -5 -1.5 -9t-0.5 -6q0 -4 0.5 -7t1.5 -7
q-10 0 -24 0.5t-29.5 1l-31 1t-27.5 0.5q-28 0 -51 -3q6 133 6 273v252v0z" />
    <glyph glyph-name="backslash" unicode="\" horiz-adv-x="500" 
d="M86 703q17 -5 26 -5t26 5l276 -723q-17 5 -26 5t-26 -5l-276 723v0z" />
    <glyph glyph-name="bracketright" unicode="]" horiz-adv-x="333" 
d="M137 407q0 63 -2 124.5t-6 124.5q-23 0 -46.5 -0.5t-44.5 -1.5q1 5 1.5 9t0.5 6q0 4 -0.5 7t-1.5 7q10 0 24 -0.5t29.5 -1l31 -1t27.5 -0.5q29 0 51 3q-6 -136 -6 -276v-252q0 -140 6 -273q-22 3 -51 3q-12 0 -27.5 -0.5l-31 -1t-29.5 -1t-24 -0.5q1 4 1.5 7t0.5 7
q0 2 -0.5 6t-1.5 9q21 -1 44.5 -1.5t46.5 -0.5q4 63 6 123t2 123v252v0z" />
    <glyph glyph-name="asciicircum" unicode="^" horiz-adv-x="606" 
d="M330 656l234 -453h-52l-209 406l-209 -406h-52l236 453h52z" />
    <glyph glyph-name="underscore" unicode="_" horiz-adv-x="500" 
d="M0 -78h500v-50h-500v50z" />
    <glyph glyph-name="grave" unicode="`" horiz-adv-x="333" 
d="M46 653q-12 8 -24 18.5t-12 28.5q0 16 11.5 24t21.5 8q21 0 45 -24l147 -149h-42l-147 94v0z" />
    <glyph glyph-name="a" unicode="a" horiz-adv-x="500" 
d="M333 247q-17 -6 -39.5 -10t-45.5 -8.5t-45.5 -11.5t-40 -19t-28 -30t-10.5 -46q0 -47 27 -71t60 -24q38 0 69.5 21t48.5 49zM86 425q45 34 83 46t78 12q36 0 66 -10.5t51 -30t33 -47t12 -60.5q0 -57 -2 -113.5t-2 -119.5q0 -12 0.5 -25.5t4.5 -24t11.5 -17.5t22.5 -7
q5 0 10.5 0.5t10.5 3.5v-22q-11 -5 -27.5 -8t-36.5 -3q-32 0 -49 16.5t-20 42.5q-36 -36 -71 -53t-86 -17q-25 0 -49 7t-42.5 23t-30 38.5t-11.5 51.5q0 60 37.5 93t103.5 44q54 9 84.5 15.5t45 13.5t17.5 16.5t3 24.5q0 25 -6 48t-19 40t-34 27.5t-51 10.5q-40 0 -74.5 -18
t-51.5 -50h-11v52z" />
    <glyph glyph-name="b" unicode="b" 
d="M426 251q0 46 -11.5 81.5t-30 59.5t-43 36.5t-50.5 12.5q-31 0 -59.5 -11.5t-49.5 -38t-33.5 -69t-12.5 -104.5q0 -201 146 -201q31 0 57 16.5t45.5 47.5t30.5 74t11 96zM514 248q0 -58 -17.5 -106t-48 -82.5t-72 -53t-89.5 -18.5t-86.5 20.5t-58.5 49.5q-36 -29 -67 -58
h-18q2 24 3.5 58t2.5 72.5t1.5 78.5t0.5 74v181q0 34 -0.5 74t-1.5 79t-2.5 74.5t-3.5 60.5q28 -5 45 -5q11 0 23 1.5t26 3.5q-3 -20 -5 -63.5t-3 -97t-2 -110t-2 -102.5h2q34 54 75 79t95 25q52 0 90 -19.5t63 -51.5t37.5 -74.5t12.5 -89.5z" />
    <glyph glyph-name="c" unicode="c" horiz-adv-x="500" 
d="M42 234q0 65 22 112t57.5 77.5t81.5 45t94 14.5q55 0 98.5 -13.5t62.5 -30.5q-7 -15 -12.5 -31.5t-9.5 -34.5h-8q-7 13 -19 26.5t-28.5 25t-36.5 19t-44 7.5q-45 0 -77.5 -16.5t-53 -45.5t-30 -68.5t-9.5 -85.5q0 -103 44 -155.5t129 -52.5q20 0 41 5.5t41 15t37.5 22.5
t30.5 28l5 -3q-5 -24 -6 -49q-30 -24 -74.5 -41t-92.5 -17q-43 0 -86.5 12.5t-78.5 42t-56.5 76.5t-21.5 115z" />
    <glyph glyph-name="d" unicode="d" 
d="M130 225q0 -60 12.5 -99t32 -62.5t44.5 -32.5t49 -9q39 0 67 19.5t46.5 51t27 71.5t8.5 80q0 96 -37 146.5t-109 50.5q-36 0 -62.5 -16.5t-44 -46t-26 -69t-8.5 -84.5zM414 93q-8 -16 -21.5 -34.5t-34 -34.5t-48.5 -26t-65 -10q-38 0 -74.5 13t-65 42.5t-46 76
t-17.5 111.5q0 64 19 111t49.5 78.5t69 47t77.5 15.5q111 0 154 -100h2v98q0 38 -0.5 76.5t-1 73.5t-1 66t-1.5 55q12 -2 23 -3.5t22 -1.5t21.5 1.5t23.5 3.5q-3 -32 -5 -92.5t-3.5 -133.5t-2.5 -150t-1 -141q0 -69 1 -124t2 -113q-20 2 -39 2q-18 0 -38 -2l3 95h-2z" />
    <glyph glyph-name="e" unicode="e" horiz-adv-x="500" 
d="M266 451q-37 0 -62.5 -17t-42 -42.5t-25 -56t-10.5 -57.5q31 -1 64.5 -2t65.5 -1q33 0 67 1t66 2q0 27 -4.5 57t-18 56t-37.5 43t-63 17zM35 220q0 123 58.5 193t170.5 70q53 0 91.5 -16.5t64.5 -44t38.5 -64.5t12.5 -79q0 -10 -0.5 -19.5t-1.5 -19.5q-54 1 -107 2
t-107 1q-33 0 -65.5 -1t-65.5 -2q-1 -5 -1 -15v-13q0 -39 11.5 -73t33.5 -58.5t54 -39t74 -14.5q20 0 41 5.5t41 15t37.5 22.5t30.5 28l5 -3l-6 -49q-30 -24 -74.5 -41t-92.5 -17q-54 0 -98.5 16.5t-77 48t-50 74.5t-17.5 93z" />
    <glyph glyph-name="f" unicode="f" horiz-adv-x="278" 
d="M288 669q-24 15 -55 15q-22 0 -37.5 -8.5t-25.5 -22t-14.5 -31.5t-4.5 -38q0 -18 3.5 -52t8.5 -65q26 0 51.5 0.5t51.5 0.5q-1 -5 -1.5 -10t-0.5 -10t0.5 -10t1.5 -10q-26 1 -51.5 2t-51.5 1q0 -109 0.5 -216.5t3.5 -216.5q-11 2 -22 2h-21q-21 0 -44 -2q7 109 8 215.5
t1 217.5q-18 0 -36 -1l-36 -2q1 5 1.5 10t0.5 10t-0.5 10t-1.5 10q18 0 36.5 -0.5t35.5 -0.5q0 29 6 63t17.5 67t27.5 62.5t36 49.5q18 18 45.5 32t56.5 14q11 0 20 -3q-1 -20 -2.5 -40t-1.5 -40l-6 -3v0z" />
    <glyph glyph-name="g" unicode="g" horiz-adv-x="500" 
d="M405 -108q0 60 -35 84t-116 24q-75 0 -116 -24.5t-41 -88.5q0 -34 11.5 -58t31 -39t46.5 -22t58 -7q30 0 59 8t51.5 24t36.5 40.5t14 58.5zM351 325q0 63 -30 96t-79 33q-54 0 -84 -36.5t-30 -97.5q0 -63 27.5 -99.5t85.5 -36.5q29 0 49.5 11.5t34 31t20 45t6.5 53.5z
M50 320q0 42 15 72.5t41.5 50.5t61 30t73.5 10q19 0 36.5 -1t44.5 -3q23 -2 41 -3t29 -1q56 0 81 5q-1 -5 -1.5 -10.5t-0.5 -10.5t0.5 -10.5t1.5 -10.5q-29 2 -56.5 4.5t-54.5 3.5l-2 -2q31 -17 50 -52.5t19 -73.5q0 -75 -50.5 -117.5t-135.5 -42.5q-14 0 -27.5 1t-27.5 1
q-18 0 -33.5 -13t-15.5 -33q0 -26 12.5 -38t46.5 -13q28 -1 55 -1.5t55 -1.5q46 -1 78.5 -11t53 -27t30 -39t9.5 -48q0 -35 -13.5 -71t-42 -65t-73.5 -48t-108 -19q-97 0 -153 38.5t-56 105.5q0 26 9.5 48t24.5 39t34 27t39 15v2q-31 9 -47 30t-16 50q0 17 6.5 31t16.5 25
t23 18t25 9v2q-46 20 -72 56.5t-26 91.5z" />
    <glyph glyph-name="h" unicode="h" 
d="M84 464q0 34 -0.5 74t-1.5 79t-2.5 74.5t-3.5 60.5q28 -5 45 -5t45 5q-2 -25 -3.5 -60t-2.5 -73.5t-1.5 -77.5t-0.5 -72v-76h2q28 43 67 66.5t93 23.5q28 0 56.5 -8t51.5 -27.5t37.5 -53t14.5 -85.5q0 -43 -2 -88.5t-2 -96.5v-65q0 -16 0.5 -31.5t1.5 -29.5q-20 2 -42 2
q-21 0 -41 -2q2 52 4.5 107t2.5 113v61q0 75 -29 113.5t-80 38.5q-70 0 -102.5 -43t-32.5 -121q0 -28 0.5 -65t1.5 -74.5t2.5 -72.5t3.5 -57q-23 2 -45 2t-45 -2q2 23 3.5 58t2.5 74t1.5 79t0.5 74v181v0z" />
    <glyph glyph-name="i" unicode="i" horiz-adv-x="278" 
d="M88 647q0 21 15 36t36 15t36 -15t15 -36t-15 -36t-36 -15t-36 15t-15 36zM102 286q0 45 -1.5 94.5t-6.5 92.5q28 -5 45 -5t45 5q-5 -43 -6.5 -92.5t-1.5 -94.5v-104q0 -45 1.5 -94.5t6.5 -89.5q-23 2 -45 2t-45 -2q5 40 6.5 89.5t1.5 94.5v104z" />
    <glyph glyph-name="j" unicode="j" horiz-adv-x="278" 
d="M88 647q0 21 15 36t36 15t36 -15t15 -36t-15 -36t-36 -15t-36 15t-15 36zM102 246q0 30 -0.5 61t-1 61t-2 57t-4.5 48q28 -5 45 -5t45 5q-5 -43 -6.5 -92.5t-1.5 -94.5v-104q0 -58 2 -115t2 -112q0 -42 -4.5 -77.5t-27.5 -69.5q-22 -32 -59.5 -53t-85.5 -23l-4 34
q1 -1 4.5 -1.5t8.5 -0.5q29 0 46.5 17t27.5 44t13 60.5t3 66.5v294z" />
    <glyph glyph-name="k" unicode="k" horiz-adv-x="500" 
d="M84 464q0 34 -0.5 74t-1.5 79t-2.5 74.5t-3.5 60.5q28 -5 45 -5t45 5q-2 -25 -3.5 -60.5t-2.5 -74.5t-1.5 -79t-0.5 -74v-182q0 -19 12 -19q8 0 17.5 7t21.5 16q9 7 30.5 27t48 46.5t54.5 56.5t51 57q20 -5 38 -5q11 0 22 1.5t28 3.5q-63 -51 -120.5 -100.5
t-109.5 -100.5q57 -69 117.5 -138t123.5 -136q-17 2 -30.5 2h-26.5h-24t-27 -2q-22 25 -50 58.5t-55.5 66.5t-52.5 62t-43 48q-3 4 -7 7t-8 3q-10 0 -10 -12v-60q0 -45 1.5 -87.5t6.5 -85.5q-23 2 -45 2t-45 -2q2 23 3.5 58t2.5 74t1.5 79t0.5 74v181v0z" />
    <glyph glyph-name="l" unicode="l" horiz-adv-x="278" 
d="M102 464q0 34 -0.5 74t-1.5 79t-2.5 74.5t-3.5 60.5q28 -5 45 -5t45 5q-2 -25 -3.5 -60.5t-2.5 -74.5t-1.5 -79t-0.5 -74v-181q0 -34 0.5 -74t1.5 -79t2.5 -74t3.5 -58q-23 2 -45 2t-45 -2q2 23 3.5 58t2.5 74t1.5 79t0.5 74v181v0z" />
    <glyph glyph-name="m" unicode="m" horiz-adv-x="833" 
d="M78 286q0 45 -1.5 94.5t-6.5 92.5q28 -5 45 -5q8 0 17.5 1.5t22.5 3.5q-3 -40 -3 -80h2q53 90 149 90q25 0 49 -7.5t43.5 -20.5t33.5 -31.5t19 -39.5h2q24 48 65.5 73.5t95.5 25.5q33 0 61 -9t48.5 -28t32 -49t11.5 -72q0 -17 -1 -37t-2 -46.5t-2 -60t-1 -77.5
q0 -27 0.5 -52t2.5 -54q-11 2 -22 2h-21h-22t-22 -2q3 25 6.5 101t3.5 212q0 25 -5.5 47t-17.5 38t-32 25.5t-50 9.5q-36 0 -61 -14t-39 -33q-8 -11 -12.5 -22t-7 -33.5t-3.5 -63t-1 -111.5q0 -43 1.5 -78.5t3.5 -77.5q-23 2 -44 2t-44 -2q5 55 7 112t2 112q0 47 -0.5 73.5
t-2.5 42t-5.5 25.5t-9.5 22q-11 19 -34.5 32.5t-48.5 13.5q-66 0 -97 -43t-31 -121v-85q0 -45 1.5 -94.5t6.5 -89.5q-23 2 -45 2t-45 -2q5 40 6.5 89.5t1.5 94.5v104v0z" />
    <glyph glyph-name="n" unicode="n" 
d="M402 279q0 75 -29 113.5t-80 38.5q-70 0 -102.5 -43t-32.5 -121v-85q0 -45 1.5 -94.5t6.5 -89.5q-23 2 -45 2t-45 -2q5 40 6.5 89.5t1.5 94.5v104q0 45 -1.5 94.5t-6.5 92.5q28 -5 45 -5q8 0 17.5 1.5t22.5 3.5q-3 -40 -3 -80h2q28 43 67 66.5t93 23.5q28 0 56.5 -8
t51.5 -27.5t37.5 -53t14.5 -85.5q0 -43 -2 -88.5t-2 -96.5v-65q0 -16 0.5 -31.5t1.5 -29.5q-20 2 -42 2q-21 0 -41 -2q2 52 4.5 107t2.5 113v61v0z" />
    <glyph glyph-name="o" unicode="o" 
d="M123 234q0 -42 7.5 -81t25.5 -69.5t48 -48.5t74 -18t74 18t48 48.5t25.5 69.5t7.5 81t-7.5 81t-25.5 69.5t-48 48.5t-74 18t-74 -18t-48 -48.5t-25.5 -69.5t-7.5 -81zM35 234q0 68 21.5 115.5t56.5 77t78.5 43t86.5 13.5q44 0 87 -13.5t78 -43t56.5 -77t21.5 -115.5
t-21.5 -115.5t-56.5 -77t-78 -41.5t-87 -12q-43 0 -86.5 12t-78.5 41.5t-56.5 77t-21.5 115.5z" />
    <glyph glyph-name="p" unicode="p" 
d="M65 182q0 34 -0.5 74t-1.5 79.5t-2.5 75.5t-3.5 62q28 -5 45 -5t45 5q-4 -26 -6 -50t-2 -48h2q7 16 20 34.5t33.5 35t49.5 27.5t66 11q38 0 75 -14.5t65.5 -44.5t46 -76.5t17.5 -110.5t-19 -111t-49.5 -78t-69.5 -45.5t-78 -14.5q-110 0 -157 95h-2v-63q0 -32 0.5 -71.5
t1.5 -78.5t2.5 -74.5t3.5 -60.5q-28 5 -45 5t-45 -5q2 25 3.5 60.5t2.5 74.5t1.5 78.5t0.5 71.5v162zM426 238q0 60 -12.5 99t-32 62.5t-44.5 32.5t-49 9q-40 0 -68.5 -17t-46.5 -45.5t-26 -67t-8 -81.5q0 -208 146 -208q36 0 62.5 16.5t44 46t26 69t8.5 84.5z" />
    <glyph glyph-name="q" unicode="q" 
d="M491 20q0 -32 0.5 -71.5t1.5 -78.5t2.5 -74.5t3.5 -60.5q-28 5 -45 5t-45 -5q2 25 3.5 60.5t2.5 74.5t1.5 78.5t0.5 71.5v75h-2q-29 -57 -71.5 -82t-91.5 -25q-37 0 -74.5 11.5t-67.5 40t-49 75.5t-19 116q0 66 19 113.5t49 78t67.5 45.5t74.5 15q68 0 107 -31t56 -77h2
q0 24 -2 48t-6 50q28 -5 45 -5t45 5q-2 -26 -3.5 -62t-2.5 -75.5t-1.5 -79.5t-0.5 -74v-162zM417 244q0 38 -8 73.5t-25.5 63t-44.5 44t-66 16.5q-24 0 -49.5 -9.5t-46.5 -34t-34 -66.5t-13 -108q0 -43 8.5 -79.5t25 -63.5t42 -42.5t58.5 -15.5q38 0 66.5 19t48 50.5
t29 71.5t9.5 81z" />
    <glyph glyph-name="r" unicode="r" horiz-adv-x="333" 
d="M305 391q-5 6 -19.5 11t-29.5 5q-24 0 -43 -11t-32 -29.5t-20 -44t-7 -54.5v-110q0 -67 0.5 -102.5t3.5 -57.5q-20 2 -40 2q-22 0 -42 -2q3 34 3.5 92.5t0.5 143.5v32q0 39 -0.5 90t-3.5 117q11 -2 21 -3.5t21 -1.5q9 0 19 1.5t21 3.5q-4 -36 -4.5 -57t-0.5 -40l2 -1
q59 108 132 108q9 0 15.5 -1t16.5 -5q-5 -12 -6 -36.5t-1 -44.5l-7 -5v0z" />
    <glyph glyph-name="s" unicode="s" horiz-adv-x="389" 
d="M71 91q5 -10 15.5 -22t25 -22.5t33 -17.5t39.5 -7q19 0 36.5 6t31 17t21.5 28t8 39q0 31 -17.5 47.5t-43.5 27t-57 18.5t-57 22.5t-43.5 38.5t-17.5 66q0 33 11 60.5t32 47.5t52 31.5t71 11.5q37 0 62.5 -10t48.5 -18q-8 -15 -15 -37t-9 -34h-12q-8 24 -31 43t-57 19
q-15 0 -30 -5t-27 -15t-20 -26t-8 -38q0 -32 17.5 -49.5t43.5 -27.5t57 -17.5t57 -21t43.5 -37.5t17.5 -66q0 -29 -12.5 -57t-36 -50.5t-56.5 -35t-75 -12.5q-46 0 -77 9t-52 21q6 13 12.5 35.5t6.5 37.5h12v0z" />
    <glyph glyph-name="t" unicode="t" horiz-adv-x="278" 
d="M167 607q-3 -38 -4.5 -74.5t-3.5 -73.5q11 0 41 0.5t65 2.5q-1 -3 -1 -11v-10v-11q0 -7 1 -10q-13 1 -27 1.5t-30 0.5h-49q-1 -4 -2.5 -32t-2.5 -66.5t-1.5 -80.5t-0.5 -75q0 -28 1.5 -55t9.5 -48.5t24 -34.5t46 -13q8 0 21.5 2t23.5 5v-24q-17 -3 -37.5 -7.5t-39.5 -4.5
q-63 0 -93 31t-30 91q0 27 1 58.5t2.5 69t2.5 83t1 101.5h-32q-8 0 -17 -0.5t-19 -1.5q1 6 1.5 11.5t0.5 11.5q0 5 -0.5 10t-1.5 10q45 -3 66 -3q-1 20 -1.5 50t-2.5 62l83 35h5z" />
    <glyph glyph-name="u" unicode="u" 
d="M76 149q0 53 1.5 90.5t1.5 74.5q0 35 -0.5 76t-1.5 83q25 -5 42 -5q16 0 41 5q-5 -60 -7.5 -131.5t-2.5 -146.5q0 -52 9 -79.5t22 -41.5q14 -16 35.5 -26.5t50.5 -10.5q42 0 70 18.5t41 45.5q7 17 11 29t6.5 32t3 54t0.5 93v84q0 22 -0.5 42t-1.5 38q11 -2 21 -3.5
t21 -1.5t21 1.5t20 3.5q-5 -78 -6 -150.5t-1 -153.5q0 -45 1 -88t3 -83q-20 2 -39 2t-39 -2q1 9 1.5 19t0.5 21v43h-2q-26 -48 -67 -70.5t-89 -22.5q-78 0 -122.5 41.5t-44.5 119.5z" />
    <glyph glyph-name="v" unicode="v" horiz-adv-x="500" 
d="M215 -2q-46 118 -92.5 236t-101.5 239q13 -2 25 -3.5t25 -1.5q11 0 22 1.5t22 3.5q31 -99 67.5 -194.5t81.5 -195.5q20 41 39.5 88.5t39 98.5t38 102.5t36.5 100.5q18 -5 31 -5t31 5q-54 -121 -106 -239t-95 -236q-15 2 -31 2t-32 -2z" />
    <glyph glyph-name="w" unicode="w" horiz-adv-x="778" 
d="M193 -2q-12 37 -32 94t-43.5 121.5t-49 132t-50.5 127.5q12 -2 23.5 -3.5t23.5 -1.5q11 0 22 1.5t24 3.5q26 -94 57.5 -188.5t70.5 -194.5q12 28 29 74t35 99t36 108t32 102q18 -5 30 -5q8 0 14 1.5l14 3.5q25 -96 58 -189.5t69 -193.5q13 32 30.5 78.5t36.5 98
t38.5 105.5t36.5 101q20 -5 32 -5q13 0 30 5q-57 -121 -106.5 -239t-92.5 -236q-11 2 -26 2h-14t-12 -2q-26 89 -57 179t-71 189q-12 -30 -29 -74.5t-35 -95.5t-36 -103.5t-32 -94.5q-12 2 -28 2t-28 -2z" />
    <glyph glyph-name="x" unicode="x" horiz-adv-x="500" 
d="M259 286q36 48 70.5 93.5t67.5 93.5q9 -2 17.5 -3.5t17.5 -1.5q12 0 34 5q-48 -55 -93.5 -108.5t-90.5 -107.5q45 -66 93.5 -130.5t99.5 -128.5q-14 2 -27 2h-24h-24t-27 -2q-33 49 -68 99.5t-71 101.5q-37 -51 -72.5 -101.5t-69.5 -99.5q-16 2 -33 2q-18 0 -34 -2
q48 56 94 113.5t91 117.5q-45 61 -90.5 121t-93.5 123q14 -2 26.5 -3.5t26.5 -1.5t26.5 1.5t26.5 3.5q29 -48 60.5 -93.5t66.5 -93.5z" />
    <glyph glyph-name="y" unicode="y" horiz-adv-x="500" 
d="M222 -3q-11 27 -28.5 70t-37.5 90.5t-41 97t-39.5 93t-32.5 76.5t-21 49q13 -2 24 -3.5t22 -1.5t22 1.5t24 3.5q31 -96 69 -190t80 -194q42 88 80.5 188t68.5 196q20 -5 33 -5t33 5q-7 -14 -22.5 -47.5t-37 -80t-47 -103t-52 -116t-52.5 -118t-48 -111t-38.5 -95
t-24.5 -67.5q-20 5 -34 5t-34 -5q79 131 134 262z" />
    <glyph glyph-name="z" unicode="z" horiz-adv-x="500" 
d="M34 9q43 52 88.5 111t88.5 116t80.5 108t64.5 87q-7 0 -39.5 -1t-74.5 -3.5t-85.5 -5t-71.5 -5.5q3 14 3 28q0 13 -3 29q32 -3 94 -4t156 -1h38q18 0 33 1t29.5 2t30.5 2v-15q-40 -52 -87.5 -114.5t-92.5 -122t-82 -109t-56 -75.5q41 0 75.5 0.5t69.5 2t75 4t93 7.5
q-4 -12 -4 -28t4 -25q-63 2 -125 2h-125h-88.5t-88.5 -2v11v0z" />
    <glyph glyph-name="braceleft" unicode="{" horiz-adv-x="333" 
d="M57 302q36 0 54.5 26t18.5 68v170q0 67 23 92t65 25h58v-37h-32q-26 0 -39 -15t-13 -65v-164q0 -51 -23 -78t-65 -42v-2q42 -15 65 -42t23 -78v-161q0 -50 13 -65t39 -15h32v-37h-58q-42 0 -65 24.5t-23 92.5v167q0 42 -18.5 68t-54.5 26v42v0z" />
    <glyph glyph-name="bar" unicode="|" horiz-adv-x="333" 
d="M193 750v-998h-52v998h52z" />
    <glyph glyph-name="braceright" unicode="}" horiz-adv-x="333" 
d="M276 260q-36 0 -54.5 -26t-18.5 -68v-167q0 -68 -23 -92.5t-65 -24.5h-58v37h32q26 0 39 15t13 65v161q0 51 23 78t65 42v2q-42 15 -65 42t-23 78v164q0 50 -13 65t-39 15h-32v37h58q42 0 65 -25t23 -92v-170q0 -42 18.5 -68t54.5 -26v-42v0z" />
    <glyph glyph-name="asciitilde" unicode="~" horiz-adv-x="606" 
d="M75 230q23 38 49.5 60.5t72.5 22.5q30 0 51.5 -7.5t42.5 -17.5q34 -15 60.5 -29t58.5 -14q14 0 28 7t26 18.5t22 24.5t16 25l29 -42q-10 -15 -22 -30t-27 -27.5t-33 -20t-40 -7.5q-28 0 -55 10t-59 27q-26 14 -49 22.5t-43 8.5q-22 0 -38.5 -7t-28.5 -18.5t-19.5 -24.5
t-12.5 -25l-29 44v0z" />
    <glyph glyph-name="nonbreakingspace" unicode="&#xa0;" horiz-adv-x="278" 
 />
    <glyph glyph-name="exclamdown" unicode="&#xa1;" horiz-adv-x="333" 
d="M109 426q0 23 17 40t40 17t40 -17t17 -40t-17 -40t-40 -17t-40 17t-17 40zM176 300q4 -47 8.5 -99.5t9 -103.5t8 -97.5t6.5 -83.5t5 -61.5t2 -29.5q0 -27 -15 -38t-34 -11t-34 11t-15 38q0 5 2 29.5t5 61.5t6.5 83t8 97.5t9 103.5t8.5 100h20z" />
    <glyph glyph-name="cent" unicode="&#xa2;" 
d="M79 234q0 58 17.5 102t47.5 74.5t69 47.5t82 22v8q0 20 -1 46.5t-4 49.5q17 -5 26 -5t26 5q-3 -23 -4 -48.5t-1 -46.5v-6q54 -1 96.5 -14t61.5 -30q-7 -15 -12.5 -31.5t-9.5 -34.5h-8q-7 13 -18.5 26.5t-28 25t-37 19t-44.5 7.5v-424h3q20 0 41 5.5t41 15t37.5 22.5
t30.5 28l5 -3q-5 -24 -6 -49q-28 -23 -68.5 -38.5t-83.5 -17.5v-8q0 -23 1.5 -51t3.5 -51q-17 5 -26 5t-26 -5q2 21 3.5 50.5t1.5 52.5v7q-40 4 -79 18.5t-69.5 44t-49 74t-18.5 107.5zM295 447q-68 -16 -98 -73.5t-30 -138.5q0 -177 128 -203v415z" />
    <glyph glyph-name="sterling" unicode="&#xa3;" 
d="M59 59q43 0 69.5 12t41.5 33.5t20.5 52.5t5.5 69q0 27 -3 54t-6 51q-25 -1 -49 -1.5t-48 -0.5q2 8 2 11v12v10q0 5 -2 11q15 -3 39 -4t53 -1q-2 18 -3.5 35t-1.5 33q0 69 19 114.5t48.5 72.5t65.5 38t69 11q37 0 74 -13t55 -40q-9 -11 -18.5 -24t-19.5 -30l-4 3
q-9 33 -32.5 50t-54.5 17q-27 0 -49 -10.5t-38 -28.5t-24.5 -42.5t-8.5 -53.5q0 -42 2 -73.5t4 -58.5q47 0 80.5 1.5t72.5 3.5q-1 -5 -1.5 -10.5t-0.5 -10.5q0 -6 0.5 -11.5t1.5 -11.5q-38 1 -74.5 1.5t-75.5 0.5q1 -11 1.5 -22.5t0.5 -23.5q0 -76 -29.5 -133.5t-68.5 -88.5
v-2q85 0 173 4t163 7q-3 -21 -3 -40q0 -21 3 -34q-60 2 -117.5 2h-117.5h-114t-114 -2q1 4 1.5 12t0.5 17q0 8 -0.5 16t-1.5 16h14v0z" />
    <glyph glyph-name="currency" unicode="&#xa4;" 
d="M524 540l-55 -56q27 -31 42 -71t15 -85t-14.5 -84t-40.5 -71l53 -53l-36 -38l-55 54q-32 -27 -71 -41.5t-84 -14.5t-85 15t-71 42l-56 -55l-36 38l54 55q-54 66 -54 153q0 45 14.5 84.5t40.5 70.5l-55 57l36 36l56 -56q32 26 71.5 41t84.5 15t84 -14.5t71 -40.5l55 55z
M474 328q0 42 -15 78.5t-41.5 63.5t-62 43t-77.5 16t-77.5 -16t-62 -43t-41.5 -63.5t-15 -78.5t15 -78.5t41.5 -63.5t62 -43t77.5 -16t77.5 16t62 43t41.5 63.5t15 78.5z" />
    <glyph glyph-name="yen" unicode="&#xa5;" 
d="M236 331q-43 0 -85.5 -1t-85.5 -2q1 5 1.5 10.5t0.5 10.5t-0.5 10.5t-1.5 10.5q42 -1 81 -1.5t81 -0.5q-51 79 -100.5 157.5t-101.5 159.5q14 -2 26.5 -3.5t26.5 -1.5t26.5 1.5t26.5 3.5q7 -18 25.5 -52t42.5 -75.5t50.5 -85.5t48.5 -80q48 75 93.5 149t83.5 144
q20 -5 34 -5t34 5q-45 -60 -101.5 -143.5t-116.5 -173.5q42 0 81.5 0.5t81.5 1.5q-1 -5 -1.5 -10.5t-0.5 -10.5t0.5 -10.5t1.5 -10.5q-45 1 -87 2t-87 1v-87h87h43q22 0 44 1q-1 -5 -1.5 -10.5t-0.5 -10.5t0.5 -10.5t1.5 -10.5q-45 2 -87 3t-87 1q0 -57 1.5 -110t5.5 -99
q-23 2 -46 2t-46 -2q4 52 5.5 103.5t1.5 105.5q-43 0 -85.5 -1t-85.5 -3q1 5 1.5 10.5t0.5 10.5t-0.5 10.5t-1.5 10.5q22 -1 43 -1h42h86v87v0z" />
    <glyph glyph-name="brokenbar" unicode="&#xa6;" horiz-adv-x="333" 
d="M193 675v-350h-52v350h52zM193 175v-348h-52v348h52z" />
    <glyph glyph-name="section" unicode="&#xa7;" horiz-adv-x="500" 
d="M394 241q0 19 -4.5 33t-14.5 25t-27 21t-42 21q-49 22 -78.5 36t-46 23t-24 14t-13.5 10q-13 -11 -25.5 -31t-12.5 -44q0 -38 25 -61.5t82 -48.5q71 -31 105 -47t49 -26q10 14 18.5 31t8.5 44zM371 578q-4 16 -13.5 31t-23 26.5t-31 18.5t-38.5 7t-41 -7t-35.5 -20
t-25.5 -31.5t-10 -41.5q0 -36 21.5 -58.5t53.5 -38.5t69 -29.5t69 -32t53.5 -46t21.5 -71.5q0 -21 -6 -40.5t-14.5 -36.5t-18.5 -30.5t-19 -22.5q17 -14 27 -35.5t10 -53.5q0 -37 -13.5 -70.5t-40.5 -60.5t-66 -43.5t-90 -16.5q-19 0 -39 3.5t-38.5 9t-35 13.5t-28.5 17
q5 17 8 42.5t3 39.5h12q4 -9 14.5 -24.5t28.5 -29.5t43.5 -24t59.5 -10q27 0 50.5 10.5t41 27t28 36.5t10.5 41q0 36 -23 57.5t-57 37.5t-74.5 30t-74.5 34t-57 50.5t-23 79.5q0 24 7 44t17.5 36t22.5 27t22 17q-6 9 -11 17.5t-8.5 18.5t-5.5 23.5t-2 34.5q0 31 11 60.5
t33.5 52.5t56 37t77.5 14q49 0 81 -19t52 -42q-10 -9 -18.5 -26.5t-10.5 -32.5h-12z" />
    <glyph glyph-name="dieresis" unicode="&#xa8;" horiz-adv-x="333" 
d="M17 637q0 21 15 36t36 15t36 -15t15 -36t-15 -36t-36 -15t-36 15t-15 36zM214 637q0 21 15 36t36 15t36 -15t15 -36t-15 -36t-36 -15t-36 15t-15 36z" />
    <glyph glyph-name="copyright" unicode="&#xa9;" horiz-adv-x="750" 
d="M691 340q0 66 -24.5 124.5t-67 102t-100.5 69t-124 25.5t-124 -25.5t-100.5 -69t-67 -102t-24.5 -124.5t24.5 -124.5t67 -102t100.5 -69t124 -25.5t124 25.5t100.5 69t67 102t24.5 124.5zM17 340q0 74 28 139.5t76.5 114t114 76.5t139.5 28t139.5 -28t114 -76.5
t76.5 -114t28 -139.5q0 -75 -28 -140t-76.5 -113t-114 -75t-139.5 -27t-139.5 27t-114 75t-76.5 113t-28 140zM154 338q0 59 19 103.5t52.5 74.5t78.5 45t96 15q49 0 84 -7.5t57 -20.5q-11 -21 -13 -50l-5 -2q-7 6 -17 15t-24.5 17t-33.5 14t-45 6q-35 0 -68 -9.5t-58.5 -33
t-41 -64.5t-15.5 -104q0 -43 12 -79.5t35 -63t56.5 -41.5t76.5 -15q21 0 41 5.5t37.5 13.5t32 17.5t24.5 18.5l6 -2q-4 -9 -5 -20.5t-1 -19.5q-20 -12 -59 -26.5t-87 -14.5q-52 0 -95 16t-74 46t-48.5 72t-17.5 94z" />
    <glyph glyph-name="ordfeminine" unicode="&#xaa;" horiz-adv-x="324" 
d="M211 533q-15 -8 -37.5 -11t-42.5 -9t-34.5 -19t-14.5 -41q0 -26 16 -39t39 -13q24 0 43 13.5t31 26.5v92zM53 641q20 11 45 21t64 10q17 0 35.5 -3.5t34.5 -14t26 -29t10 -48.5q0 -18 -1 -39t-1.5 -41t-1.5 -37.5t-1 -28.5q0 -20 7 -27t15 -7q11 0 19 6v-18q-7 -4 -19 -8
t-28 -4q-20 0 -30.5 13t-12.5 30q-22 -21 -46 -32t-55 -11q-16 0 -32.5 3.5t-30 12t-22 23t-8.5 35.5q0 35 20.5 54t78.5 29q33 6 51.5 10t27.5 7.5t11 8t2 11.5q0 24 -5.5 39.5t-15.5 23.5t-22.5 11t-27.5 3q-31 0 -50 -13.5t-25 -26.5h-12v37z" />
    <glyph glyph-name="guillemotleft" unicode="&#xab;" horiz-adv-x="500" 
d="M367 419q5 -10 15 -17.5t22 -9.5l-111 -159l106 -166q-12 -2 -23 -9.5t-15 -16.5l-120 191zM222 419q5 -10 15 -17.5t22 -9.5l-111 -159l106 -166q-12 -2 -23 -9.5t-15 -16.5l-120 191z" />
    <glyph glyph-name="logicalnot" unicode="&#xac;" horiz-adv-x="606" 
d="M50 324v52h506v-268h-52v216h-454z" />
    <glyph glyph-name="registered" unicode="&#xae;" horiz-adv-x="750" 
d="M59 340q0 -66 24.5 -124.5t67 -102t100.5 -69t124 -25.5t124 25.5t100.5 69t67 102t24.5 124.5t-24.5 124.5t-67 102t-100.5 69t-124 25.5t-124 -25.5t-100.5 -69t-67 -102t-24.5 -124.5zM17 340q0 74 28 139.5t76.5 114t114 76.5t139.5 28t139.5 -28t114 -76.5
t76.5 -114t28 -139.5q0 -75 -28 -140t-76.5 -113t-114 -75t-139.5 -27t-139.5 27t-114 75t-76.5 113t-28 140zM294 365q5 -2 16.5 -3t25.5 -1q26 0 48.5 5.5t40 17.5t27.5 31.5t10 46.5q0 39 -25.5 61t-67.5 22q-19 0 -36.5 -1.5t-32.5 -3.5q-2 -23 -4 -47t-2 -47v-81z
M242 434q0 34 -2 70.5t-5 64.5q20 -2 40.5 -3.5t41.5 -1.5q20 0 40.5 2.5t40.5 2.5q26 0 49 -6t40 -18.5t27 -31t10 -44.5q0 -30 -14.5 -53t-35.5 -38.5t-44.5 -23.5t-42.5 -9q20 -24 44 -56t49 -63.5t47 -58t37 -39.5v-5q-11 2 -20.5 3.5t-17.5 1.5q-14 0 -39 -5
q-37 54 -76.5 107t-84.5 107h-32v-70q0 -72 6 -144q-20 5 -32 5q-13 0 -33 -5q2 35 4.5 70t2.5 70v171z" />
    <glyph glyph-name="macron" unicode="&#xaf;" horiz-adv-x="333" 
d="M303 656v-52h-273v52h273z" />
    <glyph glyph-name="degree" unicode="&#xb0;" horiz-adv-x="400" 
d="M92 527q0 -22 8.5 -42t23 -34.5t34.5 -23t42 -8.5q23 0 42.5 8.5t34 23t23 34.5t8.5 42q0 23 -8.5 42.5t-23 34t-34 23t-42.5 8.5q-22 0 -42 -8.5t-34.5 -23t-23 -34t-8.5 -42.5zM55 527q0 30 11.5 56.5t31 46t46 31t56.5 11.5t56.5 -11.5t46 -31t31 -46t11.5 -56.5
t-11.5 -56.5t-31 -46t-46 -31t-56.5 -11.5t-56.5 11.5t-46 31t-31 46t-11.5 56.5z" />
    <glyph glyph-name="plusminus" unicode="&#xb1;" horiz-adv-x="606" 
d="M556 52v-52h-506v52h506zM277 324v182h52v-182h227v-52h-227v-182h-52v182h-227v52h227z" />
    <glyph glyph-name="twosuperior" unicode="&#xb2;" horiz-adv-x="333" 
d="M45 613q21 31 49 45t70 14q56 0 93 -25t37 -81q0 -24 -7 -45t-28 -48t-60.5 -65t-105.5 -96l2 -5h48q40 0 80 1t73 4q-4 -12 -4 -26t4 -26q-35 2 -70 3.5t-70 1.5t-69.5 -1.5t-69.5 -3.5v15q48 45 87 81.5t66.5 69.5t42.5 66t15 71q0 45 -22 65t-51 20q-20 0 -35 -6.5
t-25 -16t-15.5 -20.5t-6.5 -20l-5 -2l-23 30v0z" />
    <glyph glyph-name="threesuperior" unicode="&#xb3;" horiz-adv-x="333" 
d="M41 318q11 -11 33 -23t53 -12q48 0 75 27t27 69q0 25 -7 41.5t-18.5 26.5t-26 14.5t-29.5 4.5q-12 0 -22.5 -2t-18.5 -4q3 9 3 17q0 11 -3 20q15 -7 33 -7q21 0 34.5 8.5t22 21.5t11.5 28.5t3 30.5q0 35 -20.5 52t-46.5 17t-45.5 -13t-26.5 -30l-5 -1l-15 32
q14 12 37.5 24t68.5 12q48 0 81.5 -21.5t33.5 -66.5q0 -22 -8 -39.5t-21 -30t-28.5 -20.5t-30.5 -11v-2q17 -1 36 -6t35.5 -15.5t27.5 -28.5t11 -45q0 -57 -45.5 -92t-120.5 -35q-36 0 -61 6.5t-42 14.5l10 38h5z" />
    <glyph glyph-name="acute" unicode="&#xb4;" horiz-adv-x="333" 
d="M245 708q24 24 45 24q10 0 21.5 -8t11.5 -24q0 -18 -12 -28.5t-24 -18.5l-147 -94h-42l147 149v0z" />
    <glyph glyph-name="mu" unicode="&#xb5;" 
d="M242 -12q-28 0 -51 6t-41 21q0 -73 1 -142t9 -138q-25 5 -42 5t-42 -5q0 43 0.5 81.5t1.5 77t1.5 78t0.5 86.5q0 66 -0.5 122.5t-1 106.5t-1 95.5t-0.5 90.5q25 -5 42 -5q16 0 41 5q-5 -60 -7.5 -131.5t-2.5 -146.5q0 -52 9 -79.5t22 -41.5q14 -16 35.5 -26.5t50.5 -10.5
q42 0 70 18.5t41 45.5q7 17 11 29t6.5 32t3 54t0.5 93v84q0 22 -0.5 42t-1.5 38q11 -2 21 -3.5t21 -1.5t21 1.5t20 3.5q-5 -78 -6 -150.5t-1 -153.5q0 -45 1 -88t3 -83q-20 2 -39 2t-39 -2q1 9 1.5 19t0.5 21v43h-2q-26 -48 -67.5 -70.5t-89.5 -22.5z" />
    <glyph glyph-name="paragraph" unicode="&#xb6;" horiz-adv-x="800" 
d="M435 629v-741h-36v403q-64 0 -111 15t-77.5 42t-45.5 65t-15 83q0 94 52.5 139t146.5 45h261v-24l-75 -12v-756h-36v751z" />
    <glyph glyph-name="periodcentered" unicode="&#xb7;" horiz-adv-x="278" 
d="M79 306q0 25 17.5 42.5t42.5 17.5t42.5 -17.5t17.5 -42.5t-17.5 -42.5t-42.5 -17.5t-42.5 17.5t-17.5 42.5z" />
    <glyph glyph-name="cedilla" unicode="&#xb8;" horiz-adv-x="333" 
d="M43 -172q11 -5 30 -8.5t42 -3.5q25 0 42.5 11t17.5 31q0 22 -15 31t-36 9q-33 0 -43 -7l-7 7l41 102h35l-25 -70q6 2 12.5 3.5t16.5 1.5q39 0 61 -19.5t22 -51.5q0 -21 -9.5 -37t-26 -26.5t-38 -16t-45.5 -5.5q-31 0 -53 6t-36 11l14 32v0z" />
    <glyph glyph-name="onesuperior" unicode="&#xb9;" horiz-adv-x="333" 
d="M143 618l-72 -37q-7 13 -20 19v10q38 12 77.5 28.5t70.5 33.5h11q-6 -76 -6 -156v-100q0 -76 6 -156q-20 5 -34 5t-34 -5q3 42 4 80t1 76v200z" />
    <glyph glyph-name="ordmasculine" unicode="&#xba;" horiz-adv-x="340" 
d="M76 522q0 -23 5 -45.5t16 -40t29 -28.5t45 -11q26 0 43.5 11t28.5 28.5t16 40t5 45.5q0 24 -5 46.5t-16 40t-28.5 28.5t-43.5 11q-27 0 -45 -11t-29 -28.5t-16 -40t-5 -46.5zM10 522q0 41 14 69.5t37 46.5t51.5 26t58.5 8q29 0 57 -8t51 -26t37 -46.5t14 -69.5t-14 -69.5
t-37 -46t-51 -25.5t-57 -8q-30 0 -58.5 8t-51.5 25.5t-37 46t-14 69.5z" />
    <glyph glyph-name="guillemotright" unicode="&#xbb;" horiz-adv-x="500" 
d="M101 396q12 2 23 9.5t15 16.5l120 -191l-126 -187q-5 10 -15 17.5t-22 9.5l111 159zM246 396q12 2 23 9.5t15 16.5l120 -191l-126 -187q-5 10 -15 17.5t-22 9.5l111 159z" />
    <glyph glyph-name="onequarter" unicode="&#xbc;" horiz-adv-x="834" 
d="M140 618l-72 -37q-7 13 -20 19v10q38 12 77.5 28.5t70.5 33.5h11q-6 -76 -6 -156v-100q0 -76 6 -156q-20 5 -34 5t-34 -5q3 42 4 80t1 76v200zM491 684q15 -5 23 -5t23 5l-277 -709q-15 5 -23 5t-23 -5zM651 341q-36 -48 -73 -95.5t-66 -95.5l2 -5h139v193zM451 126
q54 69 106 137.5t106 137.5q9 -4 26 -4t26 4q-4 -64 -4.5 -128t-0.5 -128q14 0 30.5 1.5t27.5 4.5q-4 -11 -4 -23q0 -13 4 -24q-20 4 -58 4q0 -29 1 -56.5t3 -53.5q-16 2 -33 2t-33 -2q2 26 3.5 53.5t1.5 56.5h-59t-57 -0.5t-49.5 -1.5t-36.5 -2v22z" />
    <glyph glyph-name="onehalf" unicode="&#xbd;" horiz-adv-x="834" 
d="M505 348q21 31 49 45t70 14q56 0 93 -25t37 -81q0 -24 -7 -45t-28 -48t-60.5 -65t-105.5 -96l2 -5h48q40 0 80 1t73 4q-4 -12 -4 -26t4 -23q-35 2 -70 2h-70h-69.5t-69.5 -2v12q48 45 87 81.5t66.5 69.5t42.5 66t15 71q0 45 -22 65t-51 20q-20 0 -35 -6.5t-25 -16
t-15.5 -20.5t-6.5 -20l-5 -2zM140 618l-72 -37q-7 13 -20 19v10q38 12 77.5 28.5t70.5 33.5h11q-6 -76 -6 -156v-100q0 -76 6 -156q-20 5 -34 5t-34 -5q3 42 4 80t1 76v200zM488 684q15 -5 23 -5t23 5l-277 -709q-15 5 -23 5t-23 -5z" />
    <glyph glyph-name="threequarters" unicode="&#xbe;" horiz-adv-x="834" 
d="M39 318q11 -11 33 -23t53 -12q48 0 75 27t27 69q0 25 -7 41.5t-18.5 26.5t-26 14.5t-29.5 4.5q-12 0 -22.5 -2t-18.5 -4q3 9 3 17q0 11 -3 20q15 -7 33 -7q21 0 34.5 8.5t22 21.5t11.5 28.5t3 30.5q0 35 -20.5 52t-46.5 17t-45.5 -13t-26.5 -30l-5 -1l-15 32
q14 12 37.5 24t68.5 12q48 0 81.5 -21.5t33.5 -66.5q0 -22 -8 -39.5t-21 -30t-28.5 -20.5t-30.5 -11v-2q17 -1 36 -6t35.5 -15.5t27.5 -28.5t11 -45q0 -57 -45.5 -92t-120.5 -35q-36 0 -61 6.5t-42 14.5l10 38h5zM523 684q15 -5 23 -5t23 5l-277 -709q-15 5 -23 5t-23 -5z
M671 341q-36 -48 -73 -95.5t-66 -95.5l2 -5h139v193zM471 126q54 69 106 137.5t106 137.5q9 -4 26 -4t26 4q-4 -64 -4.5 -128t-0.5 -128q14 0 30.5 1.5t27.5 4.5q-4 -11 -4 -23q0 -13 4 -24q-20 4 -58 4q0 -29 1 -56.5t3 -53.5q-16 2 -33 2t-33 -2q2 26 3.5 53.5t1.5 56.5
h-59t-57 -0.5t-49.5 -1.5t-36.5 -2v22z" />
    <glyph glyph-name="questiondown" unicode="&#xbf;" horiz-adv-x="389" 
d="M150 426q0 23 17 40t40 17t40 -17t17 -40t-17 -40t-40 -17t-40 17t-17 40zM144 264q4 5 7.5 13t4.5 15q15 5 35 5q12 0 30.5 -6t35.5 -19t29 -34t12 -52q0 -33 -12.5 -60.5t-32 -50.5t-41.5 -44.5t-41.5 -41.5t-32 -43.5t-12.5 -50.5q0 -20 7.5 -35t19.5 -25.5t27.5 -16
t31.5 -5.5q27 0 50.5 13t40.5 33l6 -50q-20 -12 -44 -22.5t-59 -10.5q-36 0 -63.5 10.5t-46.5 28.5t-28.5 42t-9.5 51q0 35 13 63.5t33 53.5t43 47t43 44t33 45t13 49q0 20 -13 39.5t-39 19.5q-12 0 -21 -3.5t-13 -5.5z" />
    <glyph glyph-name="Agrave" unicode="&#xc0;" horiz-adv-x="667" 
d="M213 825q-12 8 -24 18.5t-12 28.5q0 16 11.5 24t21.5 8q21 0 45 -24l147 -149h-42zM207 309q26 0 54 -1t54 -1q28 0 56 0.5t56 1.5l-111 254zM349 698q24 -58 52 -125.5t57 -136.5t58 -137t54.5 -126.5t46 -104.5t33.5 -70q-14 2 -26.5 2h-26.5h-26.5t-26.5 -2
q-7 23 -19 55.5t-26.5 68t-29.5 72t-28 69.5q-32 1 -65 1.5t-66 0.5q-31 0 -61 -0.5t-61 -1.5q-32 -78 -58 -148.5t-39 -116.5q-17 2 -37 2t-37 -2q81 175 158 348t155 352h19z" />
    <glyph glyph-name="Aacute" unicode="&#xc1;" horiz-adv-x="667" 
d="M412 880q24 24 45 24q10 0 21.5 -8t11.5 -24q0 -18 -12 -28.5t-24 -18.5l-147 -94h-42zM207 309q26 0 54 -1t54 -1q28 0 56 0.5t56 1.5l-111 254zM349 698q24 -58 52 -125.5t57 -136.5t58 -137t54.5 -126.5t46 -104.5t33.5 -70q-14 2 -26.5 2h-26.5h-26.5t-26.5 -2
q-7 23 -19 55.5t-26.5 68t-29.5 72t-28 69.5q-32 1 -65 1.5t-66 0.5q-31 0 -61 -0.5t-61 -1.5q-32 -78 -58 -148.5t-39 -116.5q-17 2 -37 2t-37 -2q81 175 158 348t155 352h19z" />
    <glyph glyph-name="Acircumflex" unicode="&#xc2;" horiz-adv-x="667" 
d="M214 731h-37l123 167h67l123 -167h-37l-120 105zM207 309q26 0 54 -1t54 -1q28 0 56 0.5t56 1.5l-111 254zM349 698q24 -58 52 -125.5t57 -136.5t58 -137t54.5 -126.5t46 -104.5t33.5 -70q-14 2 -26.5 2h-26.5h-26.5t-26.5 -2q-7 23 -19 55.5t-26.5 68t-29.5 72t-28 69.5
q-32 1 -65 1.5t-66 0.5q-31 0 -61 -0.5t-61 -1.5q-32 -78 -58 -148.5t-39 -116.5q-17 2 -37 2t-37 -2q81 175 158 348t155 352h19z" />
    <glyph glyph-name="Atilde" unicode="&#xc3;" horiz-adv-x="667" 
d="M169 756q3 18 10.5 36t20.5 33t31 24.5t42 9.5q17 0 31 -5t42 -18q28 -14 40.5 -18.5t25.5 -4.5q23 0 37 15t20 35h29q-2 -12 -8 -30t-18.5 -35.5t-32.5 -29.5t-50 -12q-14 0 -31.5 5t-40.5 18q-26 14 -39.5 18.5t-25.5 4.5q-23 0 -33.5 -10t-19.5 -36h-30zM207 309
q26 0 54 -1t54 -1q28 0 56 0.5t56 1.5l-111 254zM349 698q24 -58 52 -125.5t57 -136.5t58 -137t54.5 -126.5t46 -104.5t33.5 -70q-14 2 -26.5 2h-26.5h-26.5t-26.5 -2q-7 23 -19 55.5t-26.5 68t-29.5 72t-28 69.5q-32 1 -65 1.5t-66 0.5q-31 0 -61 -0.5t-61 -1.5
q-32 -78 -58 -148.5t-39 -116.5q-17 2 -37 2t-37 -2q81 175 158 348t155 352h19z" />
    <glyph glyph-name="Adieresis" unicode="&#xc4;" horiz-adv-x="667" 
d="M184 809q0 21 15 36t36 15t36 -15t15 -36t-15 -36t-36 -15t-36 15t-15 36zM381 809q0 21 15 36t36 15t36 -15t15 -36t-15 -36t-36 -15t-36 15t-15 36zM207 309q26 0 54 -1t54 -1q28 0 56 0.5t56 1.5l-111 254zM349 698q24 -58 52 -125.5t57 -136.5t58 -137t54.5 -126.5
t46 -104.5t33.5 -70q-14 2 -26.5 2h-26.5h-26.5t-26.5 -2q-7 23 -19 55.5t-26.5 68t-29.5 72t-28 69.5q-32 1 -65 1.5t-66 0.5q-31 0 -61 -0.5t-61 -1.5q-32 -78 -58 -148.5t-39 -116.5q-17 2 -37 2t-37 -2q81 175 158 348t155 352h19z" />
    <glyph glyph-name="Aring" unicode="&#xc5;" horiz-adv-x="667" 
d="M273 817q0 -25 17.5 -42.5t42.5 -17.5q26 0 43.5 17.5t17.5 42.5t-17.5 42.5t-42.5 17.5q-26 0 -43.5 -17.5t-17.5 -42.5zM231 817q0 21 8 39.5t22 32.5t33 22t40 8t39.5 -8t32.5 -22t22 -32.5t8 -39.5t-8 -39.5t-22 -32.5t-33 -22t-40 -8t-39.5 8t-32.5 22t-22 32.5
t-8 39.5zM207 309q26 0 54 -1t54 -1q28 0 56 0.5t56 1.5l-111 254zM349 698q24 -58 52 -125.5t57 -136.5t58 -137t54.5 -126.5t46 -104.5t33.5 -70q-14 2 -26.5 2h-26.5h-26.5t-26.5 -2q-7 23 -19 55.5t-26.5 68t-29.5 72t-28 69.5q-32 1 -65 1.5t-66 0.5q-31 0 -61 -0.5
t-61 -1.5q-32 -78 -58 -148.5t-39 -116.5q-17 2 -37 2t-37 -2q81 175 158 348t155 352h19z" />
    <glyph glyph-name="AE" unicode="&#xc6;" horiz-adv-x="833" 
d="M440 607l-198 -313l209 -6v319h-11zM220 252q-79 -130 -140 -254q-20 2 -41 2h-21t-21 -2q43 63 98.5 146.5t115 175t119 185.5t113.5 180q42 -2 84 -3.5t85 -1.5q42 0 83 1.5t83 3.5q-5 -18 -5 -31t5 -31q-15 3 -30.5 5.5t-41 5t-65.5 3.5t-103 1q-2 -45 -3.5 -87.5
t-1.5 -87.5v-82q62 0 99.5 0.5t61 1.5t37.5 2.5t27 2.5q-5 -17 -5 -28t5 -28q-14 1 -28 2.5t-37.5 2.5t-61 1.5t-98.5 0.5v-101q0 -49 1.5 -98t3.5 -98q109 0 166 3.5t81 7.5q-2 -8 -3.5 -14.5t-1.5 -14.5t1.5 -14.5t3.5 -11.5q-45 2 -87 2h-84h-85.5t-85.5 -2q6 61 7 123
t1 125z" />
    <glyph glyph-name="Ccedilla" unicode="&#xc7;" horiz-adv-x="667" 
d="M360 -15q-70 7 -128.5 33t-100.5 71.5t-65.5 108.5t-23.5 142q0 85 27.5 151.5t77 112.5t118.5 70t152 24q66 0 120.5 -13.5t96.5 -32.5q-8 -14 -13 -38t-8 -40l-6 -2q-10 12 -28 27t-42 29t-54 23.5t-66 9.5q-59 0 -109.5 -19t-88 -58.5t-58.5 -100t-21 -143.5
t21 -143.5t58.5 -100t88 -58.5t109.5 -19q36 0 66.5 9t56 21.5t46 27t34.5 25.5l4 -4l-9 -59q-9 -8 -28.5 -17.5t-47 -17t-61.5 -13.5t-71 -6h-12l-21 -61q6 2 12.5 3.5t16.5 1.5q39 0 61 -19.5t22 -51.5q0 -21 -9.5 -37t-26 -26.5t-38 -16t-45.5 -5.5q-31 0 -53 6t-36 11
l14 32q11 -5 30 -8.5t42 -3.5q25 0 42.5 11t17.5 31q0 22 -15 31t-36 9q-33 0 -43 -7l-7 7l37 93v0z" />
    <glyph glyph-name="Egrave" unicode="&#xc8;" horiz-adv-x="500" 
d="M146 825q-12 8 -24 18.5t-12 28.5q0 16 11.5 24t21.5 8q21 0 45 -24l147 -149h-42zM98 427q0 66 -2.5 130t-5.5 128q45 -2 89.5 -3.5t89.5 -1.5t89 1.5t89 3.5q-3 -15 -3 -30t3 -30q-32 2 -58.5 4t-56 4t-64.5 3.5t-84 1.5q-1 -32 -2.5 -61t-1.5 -66q0 -39 0.5 -76
t0.5 -56q44 0 79 1t64 2.5t53.5 3t46.5 3.5q-3 -15 -3 -31q0 -15 3 -30q-26 3 -60.5 5t-69 2.5t-65 1t-48.5 0.5q0 -9 -0.5 -19.5t-0.5 -26.5v-39v-60q0 -57 0.5 -94t1.5 -56h70q38 0 74.5 1.5t69 4t56.5 7.5q-2 -7 -2.5 -15.5t-0.5 -15.5q0 -16 3 -26q-45 2 -89.5 2h-90.5
h-91t-91 -2q3 64 5.5 127.5t2.5 129.5v172z" />
    <glyph glyph-name="Eacute" unicode="&#xc9;" horiz-adv-x="500" 
d="M345 880q24 24 45 24q10 0 21.5 -8t11.5 -24q0 -18 -12 -28.5t-24 -18.5l-147 -94h-42zM98 427q0 66 -2.5 130t-5.5 128q45 -2 89.5 -3.5t89.5 -1.5t89 1.5t89 3.5q-3 -15 -3 -30t3 -30q-32 2 -58.5 4t-56 4t-64.5 3.5t-84 1.5q-1 -32 -2.5 -61t-1.5 -66q0 -39 0.5 -76
t0.5 -56q44 0 79 1t64 2.5t53.5 3t46.5 3.5q-3 -15 -3 -31q0 -15 3 -30q-26 3 -60.5 5t-69 2.5t-65 1t-48.5 0.5q0 -9 -0.5 -19.5t-0.5 -26.5v-39v-60q0 -57 0.5 -94t1.5 -56h70q38 0 74.5 1.5t69 4t56.5 7.5q-2 -7 -2.5 -15.5t-0.5 -15.5q0 -16 3 -26q-45 2 -89.5 2h-90.5
h-91t-91 -2q3 64 5.5 127.5t2.5 129.5v172z" />
    <glyph glyph-name="Ecircumflex" unicode="&#xca;" horiz-adv-x="500" 
d="M147 731h-37l123 167h67l123 -167h-37l-120 105zM98 427q0 66 -2.5 130t-5.5 128q45 -2 89.5 -3.5t89.5 -1.5t89 1.5t89 3.5q-3 -15 -3 -30t3 -30q-32 2 -58.5 4t-56 4t-64.5 3.5t-84 1.5q-1 -32 -2.5 -61t-1.5 -66q0 -39 0.5 -76t0.5 -56q44 0 79 1t64 2.5t53.5 3
t46.5 3.5q-3 -15 -3 -31q0 -15 3 -30q-26 3 -60.5 5t-69 2.5t-65 1t-48.5 0.5q0 -9 -0.5 -19.5t-0.5 -26.5v-39v-60q0 -57 0.5 -94t1.5 -56h70q38 0 74.5 1.5t69 4t56.5 7.5q-2 -7 -2.5 -15.5t-0.5 -15.5q0 -16 3 -26q-45 2 -89.5 2h-90.5h-91t-91 -2q3 64 5.5 127.5
t2.5 129.5v172z" />
    <glyph glyph-name="Edieresis" unicode="&#xcb;" horiz-adv-x="500" 
d="M117 809q0 21 15 36t36 15t36 -15t15 -36t-15 -36t-36 -15t-36 15t-15 36zM314 809q0 21 15 36t36 15t36 -15t15 -36t-15 -36t-36 -15t-36 15t-15 36zM98 427q0 66 -2.5 130t-5.5 128q45 -2 89.5 -3.5t89.5 -1.5t89 1.5t89 3.5q-3 -15 -3 -30t3 -30q-32 2 -58.5 4t-56 4
t-64.5 3.5t-84 1.5q-1 -32 -2.5 -61t-1.5 -66q0 -39 0.5 -76t0.5 -56q44 0 79 1t64 2.5t53.5 3t46.5 3.5q-3 -15 -3 -31q0 -15 3 -30q-26 3 -60.5 5t-69 2.5t-65 1t-48.5 0.5q0 -9 -0.5 -19.5t-0.5 -26.5v-39v-60q0 -57 0.5 -94t1.5 -56h70q38 0 74.5 1.5t69 4t56.5 7.5
q-2 -7 -2.5 -15.5t-0.5 -15.5q0 -16 3 -26q-45 2 -89.5 2h-90.5h-91t-91 -2q3 64 5.5 127.5t2.5 129.5v172z" />
    <glyph glyph-name="Igrave" unicode="&#xcc;" horiz-adv-x="278" 
d="M19 825q-12 8 -22.5 18.5t-10.5 28.5q0 16 10 24t20 8q21 0 45 -24l147 -149h-42zM98 426q0 66 -2.5 129.5t-5.5 129.5q13 -2 25 -3.5t24 -1.5t24 1.5t25 3.5q-3 -66 -5.5 -129.5t-2.5 -129.5v-172q0 -66 2.5 -130t5.5 -126q-23 2 -49 2t-49 -2q3 62 5.5 126t2.5 130v172
z" />
    <glyph glyph-name="Iacute" unicode="&#xcd;" horiz-adv-x="278" 
d="M218 880q24 24 45 24q10 0 21.5 -8t11.5 -24q0 -18 -12 -28.5t-24 -18.5l-147 -94h-42zM98 426q0 66 -2.5 129.5t-5.5 129.5q13 -2 25 -3.5t24 -1.5t24 1.5t25 3.5q-3 -66 -5.5 -129.5t-2.5 -129.5v-172q0 -66 2.5 -130t5.5 -126q-23 2 -49 2t-49 -2q3 62 5.5 126
t2.5 130v172z" />
    <glyph glyph-name="Icircumflex" unicode="&#xce;" horiz-adv-x="278" 
d="M20 731h-34l120 167h67l123 -167h-37l-120 105zM98 426q0 66 -2.5 129.5t-5.5 129.5q13 -2 25 -3.5t24 -1.5t24 1.5t25 3.5q-3 -66 -5.5 -129.5t-2.5 -129.5v-172q0 -66 2.5 -130t5.5 -126q-23 2 -49 2t-49 -2q3 62 5.5 126t2.5 130v172z" />
    <glyph glyph-name="Idieresis" unicode="&#xcf;" horiz-adv-x="278" 
d="M-7 809q0 21 13.5 36t34.5 15t36 -15t15 -36t-15 -36t-36 -15t-34.5 15t-13.5 36zM187 809q0 21 15 36t36 15t36 -15t15 -36t-15 -36t-36 -15t-36 15t-15 36zM98 426q0 66 -2.5 129.5t-5.5 129.5q13 -2 25 -3.5t24 -1.5t24 1.5t25 3.5q-3 -66 -5.5 -129.5t-2.5 -129.5
v-172q0 -66 2.5 -130t5.5 -126q-23 2 -49 2t-49 -2q3 62 5.5 126t2.5 130v172z" />
    <glyph glyph-name="Eth" unicode="&#xd0;" horiz-adv-x="778" 
d="M98 426q0 66 -2.5 129.5t-5.5 129.5q38 -2 75.5 -3.5t75.5 -1.5t75.5 2.5t75.5 2.5q88 0 150.5 -23t102.5 -65.5t58.5 -104t18.5 -138.5q0 -100 -34.5 -168.5t-88 -110.5t-118 -59.5t-123.5 -17.5q-34 0 -67 1t-67 1h-67t-67 -2q3 62 5.5 126t2.5 130v111h-47
q-11 0 -24 -0.5t-27 -1.5q1 5 1.5 10.5t0.5 10.5t-0.5 10t-1.5 10q14 -1 27 -1.5t24 -0.5h47v24zM180 254q0 -108 6 -212q21 -5 57 -7.5t74 -2.5q55 0 110 13t98.5 49t71 98.5t27.5 161.5q0 87 -21.5 143t-59 88.5t-89.5 45t-114 12.5q-45 0 -84 -3t-70 -7
q-3 -48 -4.5 -100.5t-1.5 -106.5v-24q48 0 97 0.5t95 2.5q-3 -10 -3 -21t3 -23q-46 2 -95 3t-97 1v-111z" />
    <glyph glyph-name="Ntilde" unicode="&#xd1;" horiz-adv-x="778" 
d="M241 756q3 18 10.5 36t20.5 33t31 24.5t42 9.5q17 0 31 -5t42 -18q28 -14 40.5 -18.5t25.5 -4.5q23 0 37 15t20 35h29q-2 -12 -8 -30t-18.5 -35.5t-32.5 -29.5t-50 -12q-14 0 -31.5 5t-40.5 18q-26 14 -39.5 18.5t-25.5 4.5q-23 0 -33.5 -10t-19.5 -36h-30zM661 -15
q-115 133 -245 272.5t-260 277.5q-1 -28 -2 -75t-1 -128q0 -21 0.5 -52t1 -65t1.5 -69t2 -65t2 -52.5t2 -30.5q-16 2 -35 2q-20 0 -37 -2q2 10 4.5 37t4.5 64.5t4.5 81.5t4 88t2.5 86t1 75q0 96 -0.5 165t-2.5 103h16q61 -66 130.5 -141.5t138 -149t130 -139t107.5 -111.5
v136q0 105 -1.5 204.5t-6.5 187.5q20 -5 34 -5q12 0 32 5q-2 -22 -4.5 -66t-5 -94t-4.5 -98t-2 -77v-60q0 -34 0.5 -71t1 -74.5t1 -70t0.5 -56.5v-33h-14z" />
    <glyph glyph-name="Ograve" unicode="&#xd2;" horiz-adv-x="833" 
d="M296 825q-12 8 -24 18.5t-12 28.5q0 16 11.5 24t21.5 8q21 0 45 -24l147 -149h-42zM42 340q0 85 27.5 151.5t77 112.5t118.5 70t151 24q83 0 152 -24t118.5 -70t77 -112.5t27.5 -151.5t-27.5 -151.5t-77 -112.5t-118.5 -68.5t-152 -22.5q-82 0 -151 22.5t-118.5 68.5
t-77 112.5t-27.5 151.5zM693 340q0 83 -21 143.5t-58.5 100t-88 58.5t-109.5 19q-58 0 -108.5 -19t-88 -58.5t-58.5 -100t-21 -143.5t21 -143.5t58.5 -100t88 -58.5t108.5 -19q59 0 109.5 19t88 58.5t58.5 100t21 143.5z" />
    <glyph glyph-name="Oacute" unicode="&#xd3;" horiz-adv-x="833" 
d="M495 880q24 24 45 24q10 0 21.5 -8t11.5 -24q0 -18 -12 -28.5t-24 -18.5l-147 -94h-42zM42 340q0 85 27.5 151.5t77 112.5t118.5 70t151 24q83 0 152 -24t118.5 -70t77 -112.5t27.5 -151.5t-27.5 -151.5t-77 -112.5t-118.5 -68.5t-152 -22.5q-82 0 -151 22.5t-118.5 68.5
t-77 112.5t-27.5 151.5zM693 340q0 83 -21 143.5t-58.5 100t-88 58.5t-109.5 19q-58 0 -108.5 -19t-88 -58.5t-58.5 -100t-21 -143.5t21 -143.5t58.5 -100t88 -58.5t108.5 -19q59 0 109.5 19t88 58.5t58.5 100t21 143.5z" />
    <glyph glyph-name="Ocircumflex" unicode="&#xd4;" horiz-adv-x="833" 
d="M297 731h-37l123 167h67l123 -167h-37l-120 105zM42 340q0 85 27.5 151.5t77 112.5t118.5 70t151 24q83 0 152 -24t118.5 -70t77 -112.5t27.5 -151.5t-27.5 -151.5t-77 -112.5t-118.5 -68.5t-152 -22.5q-82 0 -151 22.5t-118.5 68.5t-77 112.5t-27.5 151.5zM693 340
q0 83 -21 143.5t-58.5 100t-88 58.5t-109.5 19q-58 0 -108.5 -19t-88 -58.5t-58.5 -100t-21 -143.5t21 -143.5t58.5 -100t88 -58.5t108.5 -19q59 0 109.5 19t88 58.5t58.5 100t21 143.5z" />
    <glyph glyph-name="Otilde" unicode="&#xd5;" horiz-adv-x="833" 
d="M252 756q3 18 10.5 36t20.5 33t31 24.5t42 9.5q17 0 31 -5t42 -18q28 -14 40.5 -18.5t25.5 -4.5q23 0 37 15t20 35h29q-2 -12 -8 -30t-18.5 -35.5t-32.5 -29.5t-50 -12q-14 0 -31.5 5t-40.5 18q-26 14 -39.5 18.5t-25.5 4.5q-23 0 -33.5 -10t-19.5 -36h-30zM42 340
q0 85 27.5 151.5t77 112.5t118.5 70t151 24q83 0 152 -24t118.5 -70t77 -112.5t27.5 -151.5t-27.5 -151.5t-77 -112.5t-118.5 -68.5t-152 -22.5q-82 0 -151 22.5t-118.5 68.5t-77 112.5t-27.5 151.5zM693 340q0 83 -21 143.5t-58.5 100t-88 58.5t-109.5 19q-58 0 -108.5 -19
t-88 -58.5t-58.5 -100t-21 -143.5t21 -143.5t58.5 -100t88 -58.5t108.5 -19q59 0 109.5 19t88 58.5t58.5 100t21 143.5z" />
    <glyph glyph-name="Odieresis" unicode="&#xd6;" horiz-adv-x="833" 
d="M267 809q0 21 15 36t36 15t36 -15t15 -36t-15 -36t-36 -15t-36 15t-15 36zM464 809q0 21 15 36t36 15t36 -15t15 -36t-15 -36t-36 -15t-36 15t-15 36zM42 340q0 85 27.5 151.5t77 112.5t118.5 70t151 24q83 0 152 -24t118.5 -70t77 -112.5t27.5 -151.5t-27.5 -151.5
t-77 -112.5t-118.5 -68.5t-152 -22.5q-82 0 -151 22.5t-118.5 68.5t-77 112.5t-27.5 151.5zM693 340q0 83 -21 143.5t-58.5 100t-88 58.5t-109.5 19q-58 0 -108.5 -19t-88 -58.5t-58.5 -100t-21 -143.5t21 -143.5t58.5 -100t88 -58.5t108.5 -19q59 0 109.5 19t88 58.5
t58.5 100t21 143.5z" />
    <glyph glyph-name="multiply" unicode="&#xd7;" horiz-adv-x="606" 
d="M82 438l37 36l184 -184l185 184l36 -36l-184 -185l184 -184l-36 -37l-185 184l-184 -184l-37 37l184 184z" />
    <glyph glyph-name="Oslash" unicode="&#xd8;" horiz-adv-x="833" 
d="M220 96q37 -39 86.5 -58t109.5 -19q59 0 109.5 19t88 58.5t58.5 100t21 143.5q0 72 -15.5 126t-44.5 94zM42 340q0 85 27.5 151.5t77 112.5t118.5 70t151 24q146 0 240 -70q9 9 22.5 24t27 30.5t24 29.5t13.5 20q12 -14 28 -24q-6 -4 -18 -16t-25.5 -26.5t-27 -29.5
l-22.5 -25q54 -46 83.5 -113.5t29.5 -157.5q0 -85 -27.5 -151.5t-77 -112.5t-118.5 -68.5t-152 -22.5q-141 0 -237 65q-10 -11 -23.5 -25.5t-26.5 -28.5t-23.5 -27.5t-15.5 -22.5q-11 14 -28 24q5 4 16.5 15.5l25 25t27.5 29.5t25 28q-54 45 -84 113t-30 159zM615 582
q-37 42 -88 60.5t-111 18.5q-58 0 -108.5 -19t-88 -58.5t-58.5 -100t-21 -143.5q0 -73 16.5 -128.5t45.5 -93.5z" />
    <glyph glyph-name="Ugrave" unicode="&#xd9;" horiz-adv-x="778" 
d="M269 825q-12 8 -24 18.5t-12 28.5q0 16 11.5 24t21.5 8q21 0 45 -24l147 -149h-42zM619 360q0 142 -1 219t-5 106q11 -2 21 -3.5t20 -1.5q13 0 30 5q-3 -35 -6 -83.5t-5 -104t-4 -114t-3 -113.5q-1 -67 -20.5 -120t-55.5 -90t-88.5 -56t-120.5 -19q-150 0 -218 68
t-68 215q0 47 2.5 83.5t2.5 74.5q0 84 -2 149t-4 110q12 -2 26 -3.5t26 -1.5q11 0 21.5 1.5t21.5 3.5q-2 -22 -4 -57.5t-4 -80.5t-3 -97t-1 -108q0 -34 1 -70.5t7 -71t19.5 -66t38.5 -55t63 -37t94 -13.5q55 0 92.5 16t61.5 42t37.5 60t19.5 71t7 74t1 68z" />
    <glyph glyph-name="Uacute" unicode="&#xda;" horiz-adv-x="778" 
d="M468 880q24 24 45 24q10 0 21.5 -8t11.5 -24q0 -18 -12 -28.5t-24 -18.5l-147 -94h-42zM619 360q0 142 -1 219t-5 106q11 -2 21 -3.5t20 -1.5q13 0 30 5q-3 -35 -6 -83.5t-5 -104t-4 -114t-3 -113.5q-1 -67 -20.5 -120t-55.5 -90t-88.5 -56t-120.5 -19q-150 0 -218 68
t-68 215q0 47 2.5 83.5t2.5 74.5q0 84 -2 149t-4 110q12 -2 26 -3.5t26 -1.5q11 0 21.5 1.5t21.5 3.5q-2 -22 -4 -57.5t-4 -80.5t-3 -97t-1 -108q0 -34 1 -70.5t7 -71t19.5 -66t38.5 -55t63 -37t94 -13.5q55 0 92.5 16t61.5 42t37.5 60t19.5 71t7 74t1 68z" />
    <glyph glyph-name="Ucircumflex" unicode="&#xdb;" horiz-adv-x="778" 
d="M270 731h-37l123 167h67l123 -167h-37l-120 105zM619 360q0 142 -1 219t-5 106q11 -2 21 -3.5t20 -1.5q13 0 30 5q-3 -35 -6 -83.5t-5 -104t-4 -114t-3 -113.5q-1 -67 -20.5 -120t-55.5 -90t-88.5 -56t-120.5 -19q-150 0 -218 68t-68 215q0 47 2.5 83.5t2.5 74.5
q0 84 -2 149t-4 110q12 -2 26 -3.5t26 -1.5q11 0 21.5 1.5t21.5 3.5q-2 -22 -4 -57.5t-4 -80.5t-3 -97t-1 -108q0 -34 1 -70.5t7 -71t19.5 -66t38.5 -55t63 -37t94 -13.5q55 0 92.5 16t61.5 42t37.5 60t19.5 71t7 74t1 68z" />
    <glyph glyph-name="Udieresis" unicode="&#xdc;" horiz-adv-x="778" 
d="M240 809q0 21 15 36t36 15t36 -15t15 -36t-15 -36t-36 -15t-36 15t-15 36zM437 809q0 21 15 36t36 15t36 -15t15 -36t-15 -36t-36 -15t-36 15t-15 36zM619 360q0 142 -1 219t-5 106q11 -2 21 -3.5t20 -1.5q13 0 30 5q-3 -35 -6 -83.5t-5 -104t-4 -114t-3 -113.5
q-1 -67 -20.5 -120t-55.5 -90t-88.5 -56t-120.5 -19q-150 0 -218 68t-68 215q0 47 2.5 83.5t2.5 74.5q0 84 -2 149t-4 110q12 -2 26 -3.5t26 -1.5q11 0 21.5 1.5t21.5 3.5q-2 -22 -4 -57.5t-4 -80.5t-3 -97t-1 -108q0 -34 1 -70.5t7 -71t19.5 -66t38.5 -55t63 -37t94 -13.5
q55 0 92.5 16t61.5 42t37.5 60t19.5 71t7 74t1 68z" />
    <glyph glyph-name="Yacute" unicode="&#xdd;" horiz-adv-x="611" 
d="M384 870q24 24 45 24q10 0 21.5 -8t11.5 -24q0 -18 -12 -28.5t-24 -18.5l-147 -94h-42zM265 279q-10 17 -29.5 49.5t-43 72t-49.5 83t-49.5 83t-42.5 71t-29 47.5q14 -2 27.5 -3.5t27.5 -1.5t27.5 1.5t27.5 3.5q45 -87 91.5 -171t98.5 -175q23 36 48 79t50 88t48 90.5
t43 88.5q25 -5 39 -5t39 5q-48 -73 -86 -132t-67 -107t-51 -86.5t-38 -69.5q0 -37 0.5 -79t1.5 -82.5t2.5 -75t3.5 -55.5q-23 2 -49 2t-49 -2q6 52 7 126t1 155z" />
    <glyph glyph-name="Thorn" unicode="&#xde;" 
d="M98 426q0 66 -2.5 129.5t-5.5 129.5q13 -2 25 -3.5t24 -1.5t24 1.5t25 3.5q-3 -33 -5.5 -65.5t-2.5 -65.5h123q102 0 159 -41.5t57 -132.5q0 -55 -22 -91.5t-57 -58t-79 -30.5t-88 -9q-27 0 -49.5 1t-43.5 3v-56q0 -21 0.5 -43t1.5 -41.5t2.5 -35t3.5 -21.5q-23 2 -49 2
t-49 -2q3 62 5.5 126t2.5 130v172zM180 232q12 -2 33.5 -3t44.5 -1q32 0 62.5 9t54 27.5t38 47t14.5 67.5q0 26 -8 50.5t-26.5 44t-49 31.5t-74.5 12h-89v-285z" />
    <glyph glyph-name="germandbls" unicode="&#xdf;" 
d="M87 406q0 48 -1.5 79t-1.5 42q0 62 19.5 105.5t49 70.5t65.5 39.5t69 12.5q23 0 48.5 -8t47.5 -23t36 -35.5t14 -46.5q0 -39 -18.5 -69t-40.5 -55.5t-40.5 -47.5t-18.5 -45t15.5 -41t39.5 -34.5t51 -33t51 -37t39.5 -46.5t15.5 -61q0 -33 -16 -66t-43 -60t-62.5 -42.5
t-74.5 -15.5q-32 0 -57.5 6t-42.5 14q7 11 11.5 28t6.5 31h5q11 -18 38.5 -31.5t58.5 -13.5q21 0 40.5 7.5t34.5 21t24 33.5t9 44q0 32 -15.5 56t-39.5 43.5t-51 37t-51 36t-39.5 40t-15.5 49.5q0 29 21 55t46 54t46 59.5t21 71.5t-25.5 66.5t-73.5 26.5q-69 0 -95 -52.5
t-26 -152.5v-235q0 -34 0.5 -74t1.5 -79t2.5 -74t3.5 -58q-23 2 -45 2t-45 -2q2 23 3.5 58t2.5 74t1.5 79t0.5 74v123v0z" />
    <glyph glyph-name="agrave" unicode="&#xe0;" horiz-adv-x="500" 
d="M130 653q-12 8 -24 18.5t-12 28.5q0 16 11.5 24t21.5 8q21 0 45 -24l147 -149h-42zM333 247q-17 -6 -39.5 -10t-45.5 -8.5t-45.5 -11.5t-40 -19t-28 -30t-10.5 -46q0 -47 27 -71t60 -24q38 0 69.5 21t48.5 49zM86 425q45 34 83 46t78 12q36 0 66 -10.5t51 -30t33 -47
t12 -60.5q0 -57 -2 -113.5t-2 -119.5q0 -12 0.5 -25.5t4.5 -24t11.5 -17.5t22.5 -7q5 0 10.5 0.5t10.5 3.5v-22q-11 -5 -27.5 -8t-36.5 -3q-32 0 -49 16.5t-20 42.5q-36 -36 -71 -53t-86 -17q-25 0 -49 7t-42.5 23t-30 38.5t-11.5 51.5q0 60 37.5 93t103.5 44
q54 9 84.5 15.5t45 13.5t17.5 16.5t3 24.5q0 25 -6 48t-19 40t-34 27.5t-51 10.5q-40 0 -74.5 -18t-51.5 -50h-11v52z" />
    <glyph glyph-name="aacute" unicode="&#xe1;" horiz-adv-x="500" 
d="M329 708q24 24 45 24q10 0 21.5 -8t11.5 -24q0 -18 -12 -28.5t-24 -18.5l-147 -94h-42zM333 247q-17 -6 -39.5 -10t-45.5 -8.5t-45.5 -11.5t-40 -19t-28 -30t-10.5 -46q0 -47 27 -71t60 -24q38 0 69.5 21t48.5 49zM86 425q45 34 83 46t78 12q36 0 66 -10.5t51 -30t33 -47
t12 -60.5q0 -57 -2 -113.5t-2 -119.5q0 -12 0.5 -25.5t4.5 -24t11.5 -17.5t22.5 -7q5 0 10.5 0.5t10.5 3.5v-22q-11 -5 -27.5 -8t-36.5 -3q-32 0 -49 16.5t-20 42.5q-36 -36 -71 -53t-86 -17q-25 0 -49 7t-42.5 23t-30 38.5t-11.5 51.5q0 60 37.5 93t103.5 44
q54 9 84.5 15.5t45 13.5t17.5 16.5t3 24.5q0 25 -6 48t-19 40t-34 27.5t-51 10.5q-40 0 -74.5 -18t-51.5 -50h-11v52z" />
    <glyph glyph-name="acircumflex" unicode="&#xe2;" horiz-adv-x="500" 
d="M131 559h-37l123 167h67l123 -167h-37l-120 105zM333 247q-17 -6 -39.5 -10t-45.5 -8.5t-45.5 -11.5t-40 -19t-28 -30t-10.5 -46q0 -47 27 -71t60 -24q38 0 69.5 21t48.5 49zM86 425q45 34 83 46t78 12q36 0 66 -10.5t51 -30t33 -47t12 -60.5q0 -57 -2 -113.5t-2 -119.5
q0 -12 0.5 -25.5t4.5 -24t11.5 -17.5t22.5 -7q5 0 10.5 0.5t10.5 3.5v-22q-11 -5 -27.5 -8t-36.5 -3q-32 0 -49 16.5t-20 42.5q-36 -36 -71 -53t-86 -17q-25 0 -49 7t-42.5 23t-30 38.5t-11.5 51.5q0 60 37.5 93t103.5 44q54 9 84.5 15.5t45 13.5t17.5 16.5t3 24.5
q0 25 -6 48t-19 40t-34 27.5t-51 10.5q-40 0 -74.5 -18t-51.5 -50h-11v52z" />
    <glyph glyph-name="atilde" unicode="&#xe3;" horiz-adv-x="500" 
d="M86 584q3 18 10.5 36t20.5 33t31 24.5t42 9.5q17 0 31 -5t42 -18q28 -14 40.5 -18.5t25.5 -4.5q23 0 37 15t20 35h29q-2 -12 -8 -30t-18.5 -35.5t-32.5 -29.5t-50 -12q-14 0 -31.5 5t-40.5 18q-26 14 -39.5 18.5t-25.5 4.5q-23 0 -33.5 -10t-19.5 -36h-30zM333 247
q-17 -6 -39.5 -10t-45.5 -8.5t-45.5 -11.5t-40 -19t-28 -30t-10.5 -46q0 -47 27 -71t60 -24q38 0 69.5 21t48.5 49zM86 425q45 34 83 46t78 12q36 0 66 -10.5t51 -30t33 -47t12 -60.5q0 -57 -2 -113.5t-2 -119.5q0 -12 0.5 -25.5t4.5 -24t11.5 -17.5t22.5 -7q5 0 10.5 0.5
t10.5 3.5v-22q-11 -5 -27.5 -8t-36.5 -3q-32 0 -49 16.5t-20 42.5q-36 -36 -71 -53t-86 -17q-25 0 -49 7t-42.5 23t-30 38.5t-11.5 51.5q0 60 37.5 93t103.5 44q54 9 84.5 15.5t45 13.5t17.5 16.5t3 24.5q0 25 -6 48t-19 40t-34 27.5t-51 10.5q-40 0 -74.5 -18t-51.5 -50
h-11v52z" />
    <glyph glyph-name="adieresis" unicode="&#xe4;" horiz-adv-x="500" 
d="M101 637q0 21 15 36t36 15t36 -15t15 -36t-15 -36t-36 -15t-36 15t-15 36zM298 637q0 21 15 36t36 15t36 -15t15 -36t-15 -36t-36 -15t-36 15t-15 36zM333 247q-17 -6 -39.5 -10t-45.5 -8.5t-45.5 -11.5t-40 -19t-28 -30t-10.5 -46q0 -47 27 -71t60 -24q38 0 69.5 21
t48.5 49zM86 425q45 34 83 46t78 12q36 0 66 -10.5t51 -30t33 -47t12 -60.5q0 -57 -2 -113.5t-2 -119.5q0 -12 0.5 -25.5t4.5 -24t11.5 -17.5t22.5 -7q5 0 10.5 0.5t10.5 3.5v-22q-11 -5 -27.5 -8t-36.5 -3q-32 0 -49 16.5t-20 42.5q-36 -36 -71 -53t-86 -17q-25 0 -49 7
t-42.5 23t-30 38.5t-11.5 51.5q0 60 37.5 93t103.5 44q54 9 84.5 15.5t45 13.5t17.5 16.5t3 24.5q0 25 -6 48t-19 40t-34 27.5t-51 10.5q-40 0 -74.5 -18t-51.5 -50h-11v52z" />
    <glyph glyph-name="aring" unicode="&#xe5;" horiz-adv-x="500" 
d="M190 645q0 -25 17.5 -42.5t42.5 -17.5q26 0 43.5 17.5t17.5 42.5t-17.5 42.5t-42.5 17.5q-26 0 -43.5 -17.5t-17.5 -42.5zM148 645q0 21 8 39.5t22 32.5t33 22t40 8t39.5 -8t32.5 -22t22 -32.5t8 -39.5t-8 -39.5t-22 -32.5t-33 -22t-40 -8t-39.5 8t-32.5 22t-22 32.5
t-8 39.5zM333 247q-17 -6 -39.5 -10t-45.5 -8.5t-45.5 -11.5t-40 -19t-28 -30t-10.5 -46q0 -47 27 -71t60 -24q38 0 69.5 21t48.5 49zM86 425q45 34 83 46t78 12q36 0 66 -10.5t51 -30t33 -47t12 -60.5q0 -57 -2 -113.5t-2 -119.5q0 -12 0.5 -25.5t4.5 -24t11.5 -17.5
t22.5 -7q5 0 10.5 0.5t10.5 3.5v-22q-11 -5 -27.5 -8t-36.5 -3q-32 0 -49 16.5t-20 42.5q-36 -36 -71 -53t-86 -17q-25 0 -49 7t-42.5 23t-30 38.5t-11.5 51.5q0 60 37.5 93t103.5 44q54 9 84.5 15.5t45 13.5t17.5 16.5t3 24.5q0 25 -6 48t-19 40t-34 27.5t-51 10.5
q-40 0 -74.5 -18t-51.5 -50h-11v52z" />
    <glyph glyph-name="ae" unicode="&#xe6;" horiz-adv-x="778" 
d="M544 451q-37 0 -62.5 -17t-42 -42.5t-25 -56t-10.5 -57.5q31 -1 64.5 -2t65.5 -1q33 0 67 1t66 2q0 27 -4.5 57t-18 56t-37.5 43t-63 17zM79 425q45 34 83 46t78 12q17 0 36 -3t38.5 -11.5t39 -23t36.5 -37.5q26 35 65 55t87 20q53 0 91.5 -16.5t64.5 -44t38.5 -64.5
t12.5 -79q0 -10 -0.5 -19.5t-1.5 -19.5q-54 1 -107 2t-107 1q-33 0 -65.5 -1t-65.5 -2q-1 -5 -1 -15v-13q0 -39 11.5 -73t33.5 -58.5t54 -39t74 -14.5q20 0 41 5.5t41 15t37.5 22.5t30.5 28l5 -3l-6 -49q-30 -24 -74.5 -41t-92.5 -17q-72 0 -126 29t-79 87q-8 -22 -22 -43.5
t-36 -38t-52.5 -25.5t-72.5 -9q-25 0 -49 7t-42.5 23t-30 38.5t-11.5 51.5q0 60 37.5 93t103.5 44q54 9 84.5 15.5t45 13.5t17.5 16.5t3 24.5q0 25 -6 48t-19 40t-34 27.5t-51 10.5q-40 0 -74.5 -18t-51.5 -50h-11v52zM117 122q0 -43 25.5 -69t68.5 -26q20 0 39.5 6.5
t35.5 20t26 33t12 46.5q2 29 1.5 57t0.5 57q-17 -6 -39.5 -10t-45.5 -8.5t-45.5 -11.5t-40 -19t-28 -30t-10.5 -46z" />
    <glyph glyph-name="ccedilla" unicode="&#xe7;" horiz-adv-x="500" 
d="M194 -172q11 -5 30 -8.5t42 -3.5q25 0 42.5 11t17.5 31q0 22 -15 31t-36 9q-33 0 -43 -7l-7 7l35 92q-40 3 -79.5 17t-70 44t-49.5 75t-19 108q0 65 22 112t57.5 77.5t81.5 45t94 14.5q55 0 98.5 -13.5t62.5 -30.5q-7 -15 -12.5 -31.5t-9.5 -34.5h-8q-7 13 -19 26.5
t-28.5 25t-36.5 19t-44 7.5q-45 0 -77.5 -16.5t-53 -45.5t-30 -68.5t-9.5 -85.5q0 -103 44 -155.5t129 -52.5q20 0 41 5.5t41 15t37.5 22.5t30.5 28l5 -3q-5 -24 -6 -49q-28 -23 -69 -39t-86 -18l-21 -59q6 2 12.5 3.5t16.5 1.5q39 0 61 -19.5t22 -51.5q0 -21 -9.5 -37
t-26 -26.5t-38 -16t-45.5 -5.5q-31 0 -53 6t-36 11l14 32v0z" />
    <glyph glyph-name="egrave" unicode="&#xe8;" horiz-adv-x="500" 
d="M146 653q-12 8 -24 18.5t-12 28.5q0 16 11.5 24t21.5 8q21 0 45 -24l147 -149h-42zM266 451q-37 0 -62.5 -17t-42 -42.5t-25 -56t-10.5 -57.5q31 -1 64.5 -2t65.5 -1q33 0 67 1t66 2q0 27 -4.5 57t-18 56t-37.5 43t-63 17zM35 220q0 123 58.5 193t170.5 70
q53 0 91.5 -16.5t64.5 -44t38.5 -64.5t12.5 -79q0 -10 -0.5 -19.5t-1.5 -19.5q-54 1 -107 2t-107 1q-33 0 -65.5 -1t-65.5 -2q-1 -5 -1 -15v-13q0 -39 11.5 -73t33.5 -58.5t54 -39t74 -14.5q20 0 41 5.5t41 15t37.5 22.5t30.5 28l5 -3l-6 -49q-30 -24 -74.5 -41t-92.5 -17
q-54 0 -98.5 16.5t-77 48t-50 74.5t-17.5 93z" />
    <glyph glyph-name="eacute" unicode="&#xe9;" horiz-adv-x="500" 
d="M345 708q24 24 45 24q10 0 21.5 -8t11.5 -24q0 -18 -12 -28.5t-24 -18.5l-147 -94h-42zM266 451q-37 0 -62.5 -17t-42 -42.5t-25 -56t-10.5 -57.5q31 -1 64.5 -2t65.5 -1q33 0 67 1t66 2q0 27 -4.5 57t-18 56t-37.5 43t-63 17zM35 220q0 123 58.5 193t170.5 70
q53 0 91.5 -16.5t64.5 -44t38.5 -64.5t12.5 -79q0 -10 -0.5 -19.5t-1.5 -19.5q-54 1 -107 2t-107 1q-33 0 -65.5 -1t-65.5 -2q-1 -5 -1 -15v-13q0 -39 11.5 -73t33.5 -58.5t54 -39t74 -14.5q20 0 41 5.5t41 15t37.5 22.5t30.5 28l5 -3l-6 -49q-30 -24 -74.5 -41t-92.5 -17
q-54 0 -98.5 16.5t-77 48t-50 74.5t-17.5 93z" />
    <glyph glyph-name="ecircumflex" unicode="&#xea;" horiz-adv-x="500" 
d="M147 559h-37l123 167h67l123 -167h-37l-120 105zM266 451q-37 0 -62.5 -17t-42 -42.5t-25 -56t-10.5 -57.5q31 -1 64.5 -2t65.5 -1q33 0 67 1t66 2q0 27 -4.5 57t-18 56t-37.5 43t-63 17zM35 220q0 123 58.5 193t170.5 70q53 0 91.5 -16.5t64.5 -44t38.5 -64.5t12.5 -79
q0 -10 -0.5 -19.5t-1.5 -19.5q-54 1 -107 2t-107 1q-33 0 -65.5 -1t-65.5 -2q-1 -5 -1 -15v-13q0 -39 11.5 -73t33.5 -58.5t54 -39t74 -14.5q20 0 41 5.5t41 15t37.5 22.5t30.5 28l5 -3l-6 -49q-30 -24 -74.5 -41t-92.5 -17q-54 0 -98.5 16.5t-77 48t-50 74.5t-17.5 93z" />
    <glyph glyph-name="edieresis" unicode="&#xeb;" horiz-adv-x="500" 
d="M117 637q0 21 15 36t36 15t36 -15t15 -36t-15 -36t-36 -15t-36 15t-15 36zM314 637q0 21 15 36t36 15t36 -15t15 -36t-15 -36t-36 -15t-36 15t-15 36zM266 451q-37 0 -62.5 -17t-42 -42.5t-25 -56t-10.5 -57.5q31 -1 64.5 -2t65.5 -1q33 0 67 1t66 2q0 27 -4.5 57t-18 56
t-37.5 43t-63 17zM35 220q0 123 58.5 193t170.5 70q53 0 91.5 -16.5t64.5 -44t38.5 -64.5t12.5 -79q0 -10 -0.5 -19.5t-1.5 -19.5q-54 1 -107 2t-107 1q-33 0 -65.5 -1t-65.5 -2q-1 -5 -1 -15v-13q0 -39 11.5 -73t33.5 -58.5t54 -39t74 -14.5q20 0 41 5.5t41 15t37.5 22.5
t30.5 28l5 -3l-6 -49q-30 -24 -74.5 -41t-92.5 -17q-54 0 -98.5 16.5t-77 48t-50 74.5t-17.5 93z" />
    <glyph glyph-name="igrave" unicode="&#xec;" horiz-adv-x="278" 
d="M19 653q-12 8 -22.5 18.5t-10.5 28.5q0 16 10 24t20 8q21 0 45 -24l147 -149h-42zM102 286q0 45 -1.5 94.5t-6.5 92.5q28 -5 45 -5t45 5q-5 -43 -6.5 -92.5t-1.5 -94.5v-104q0 -45 1.5 -94.5t6.5 -89.5q-23 2 -45 2t-45 -2q5 40 6.5 89.5t1.5 94.5v104z" />
    <glyph glyph-name="iacute" unicode="&#xed;" horiz-adv-x="278" 
d="M218 708q24 24 45 24q10 0 21.5 -8t11.5 -24q0 -18 -12 -28.5t-24 -18.5l-147 -94h-42zM102 286q0 45 -1.5 94.5t-6.5 92.5q28 -5 45 -5t45 5q-5 -43 -6.5 -92.5t-1.5 -94.5v-104q0 -45 1.5 -94.5t6.5 -89.5q-23 2 -45 2t-45 -2q5 40 6.5 89.5t1.5 94.5v104z" />
    <glyph glyph-name="icircumflex" unicode="&#xee;" horiz-adv-x="278" 
d="M20 559h-34l120 167h67l123 -167h-37l-120 105zM102 286q0 45 -1.5 94.5t-6.5 92.5q28 -5 45 -5t45 5q-5 -43 -6.5 -92.5t-1.5 -94.5v-104q0 -45 1.5 -94.5t6.5 -89.5q-23 2 -45 2t-45 -2q5 40 6.5 89.5t1.5 94.5v104z" />
    <glyph glyph-name="idieresis" unicode="&#xef;" horiz-adv-x="278" 
d="M-7 637q0 21 13.5 36t34.5 15t36 -15t15 -36t-15 -36t-36 -15t-34.5 15t-13.5 36zM187 637q0 21 15 36t36 15t36 -15t15 -36t-15 -36t-36 -15t-36 15t-15 36zM102 286q0 45 -1.5 94.5t-6.5 92.5q28 -5 45 -5t45 5q-5 -43 -6.5 -92.5t-1.5 -94.5v-104q0 -45 1.5 -94.5
t6.5 -89.5q-23 2 -45 2t-45 -2q5 40 6.5 89.5t1.5 94.5v104z" />
    <glyph glyph-name="eth" unicode="&#xf0;" 
d="M35 234q0 68 21.5 115.5t56.5 77t78.5 43t86.5 13.5q13 0 25 -1t24 -6l2 2q-31 34 -62 66.5t-66 64.5l-64 -22t-66 -23q-9 18 -21 36q30 8 61.5 16.5t63.5 18.5q-28 26 -58 51t-64 51l70 18q36 -26 68 -50t60 -47q35 11 66.5 22t59.5 22q7 -18 21 -35q-32 -8 -61 -16
t-58 -17q64 -54 110 -104.5t75 -99t43 -97t14 -99.5q0 -68 -21.5 -115.5t-56.5 -77t-78 -41.5t-87 -12q-43 0 -86.5 12t-78.5 41.5t-56.5 77t-21.5 115.5zM433 234q0 42 -7.5 81t-25.5 69.5t-48 48.5t-74 18t-74 -18t-48 -48.5t-25.5 -69.5t-7.5 -81t7.5 -81t25.5 -69.5
t48 -48.5t74 -18t74 18t48 48.5t25.5 69.5t7.5 81z" />
    <glyph glyph-name="ntilde" unicode="&#xf1;" 
d="M114 584q3 18 10.5 36t20.5 33t31 24.5t42 9.5q17 0 31 -5t42 -18q28 -14 40.5 -18.5t25.5 -4.5q23 0 37 15t20 35h29q-2 -12 -8 -30t-18.5 -35.5t-32.5 -29.5t-50 -12q-14 0 -31.5 5t-40.5 18q-26 14 -39.5 18.5t-25.5 4.5q-23 0 -33.5 -10t-19.5 -36h-30zM402 279
q0 75 -29 113.5t-80 38.5q-70 0 -102.5 -43t-32.5 -121v-85q0 -45 1.5 -94.5t6.5 -89.5q-23 2 -45 2t-45 -2q5 40 6.5 89.5t1.5 94.5v104q0 45 -1.5 94.5t-6.5 92.5q28 -5 45 -5q8 0 17.5 1.5t22.5 3.5q-3 -40 -3 -80h2q28 43 67 66.5t93 23.5q28 0 56.5 -8t51.5 -27.5
t37.5 -53t14.5 -85.5q0 -43 -2 -88.5t-2 -96.5v-65q0 -16 0.5 -31.5t1.5 -29.5q-20 2 -42 2q-21 0 -41 -2q2 52 4.5 107t2.5 113v61z" />
    <glyph glyph-name="ograve" unicode="&#xf2;" 
d="M158 653q-12 8 -24 18.5t-12 28.5q0 16 11.5 24t21.5 8q21 0 45 -24l147 -149h-42zM123 234q0 -42 7.5 -81t25.5 -69.5t48 -48.5t74 -18t74 18t48 48.5t25.5 69.5t7.5 81t-7.5 81t-25.5 69.5t-48 48.5t-74 18t-74 -18t-48 -48.5t-25.5 -69.5t-7.5 -81zM35 234
q0 68 21.5 115.5t56.5 77t78.5 43t86.5 13.5q44 0 87 -13.5t78 -43t56.5 -77t21.5 -115.5t-21.5 -115.5t-56.5 -77t-78 -41.5t-87 -12q-43 0 -86.5 12t-78.5 41.5t-56.5 77t-21.5 115.5z" />
    <glyph glyph-name="oacute" unicode="&#xf3;" 
d="M357 708q24 24 45 24q10 0 21.5 -8t11.5 -24q0 -18 -12 -28.5t-24 -18.5l-147 -94h-42zM123 234q0 -42 7.5 -81t25.5 -69.5t48 -48.5t74 -18t74 18t48 48.5t25.5 69.5t7.5 81t-7.5 81t-25.5 69.5t-48 48.5t-74 18t-74 -18t-48 -48.5t-25.5 -69.5t-7.5 -81zM35 234
q0 68 21.5 115.5t56.5 77t78.5 43t86.5 13.5q44 0 87 -13.5t78 -43t56.5 -77t21.5 -115.5t-21.5 -115.5t-56.5 -77t-78 -41.5t-87 -12q-43 0 -86.5 12t-78.5 41.5t-56.5 77t-21.5 115.5z" />
    <glyph glyph-name="ocircumflex" unicode="&#xf4;" 
d="M159 559h-37l123 167h67l123 -167h-37l-120 105zM123 234q0 -42 7.5 -81t25.5 -69.5t48 -48.5t74 -18t74 18t48 48.5t25.5 69.5t7.5 81t-7.5 81t-25.5 69.5t-48 48.5t-74 18t-74 -18t-48 -48.5t-25.5 -69.5t-7.5 -81zM35 234q0 68 21.5 115.5t56.5 77t78.5 43t86.5 13.5
q44 0 87 -13.5t78 -43t56.5 -77t21.5 -115.5t-21.5 -115.5t-56.5 -77t-78 -41.5t-87 -12q-43 0 -86.5 12t-78.5 41.5t-56.5 77t-21.5 115.5z" />
    <glyph glyph-name="otilde" unicode="&#xf5;" 
d="M114 584q3 18 10.5 36t20.5 33t31 24.5t42 9.5q17 0 31 -5t42 -18q28 -14 40.5 -18.5t25.5 -4.5q23 0 37 15t20 35h29q-2 -12 -8 -30t-18.5 -35.5t-32.5 -29.5t-50 -12q-14 0 -31.5 5t-40.5 18q-26 14 -39.5 18.5t-25.5 4.5q-23 0 -33.5 -10t-19.5 -36h-30zM123 234
q0 -42 7.5 -81t25.5 -69.5t48 -48.5t74 -18t74 18t48 48.5t25.5 69.5t7.5 81t-7.5 81t-25.5 69.5t-48 48.5t-74 18t-74 -18t-48 -48.5t-25.5 -69.5t-7.5 -81zM35 234q0 68 21.5 115.5t56.5 77t78.5 43t86.5 13.5q44 0 87 -13.5t78 -43t56.5 -77t21.5 -115.5t-21.5 -115.5
t-56.5 -77t-78 -41.5t-87 -12q-43 0 -86.5 12t-78.5 41.5t-56.5 77t-21.5 115.5z" />
    <glyph glyph-name="odieresis" unicode="&#xf6;" 
d="M129 637q0 21 15 36t36 15t36 -15t15 -36t-15 -36t-36 -15t-36 15t-15 36zM326 637q0 21 15 36t36 15t36 -15t15 -36t-15 -36t-36 -15t-36 15t-15 36zM123 234q0 -42 7.5 -81t25.5 -69.5t48 -48.5t74 -18t74 18t48 48.5t25.5 69.5t7.5 81t-7.5 81t-25.5 69.5t-48 48.5
t-74 18t-74 -18t-48 -48.5t-25.5 -69.5t-7.5 -81zM35 234q0 68 21.5 115.5t56.5 77t78.5 43t86.5 13.5q44 0 87 -13.5t78 -43t56.5 -77t21.5 -115.5t-21.5 -115.5t-56.5 -77t-78 -41.5t-87 -12q-43 0 -86.5 12t-78.5 41.5t-56.5 77t-21.5 115.5z" />
    <glyph glyph-name="divide" unicode="&#xf7;" horiz-adv-x="606" 
d="M246 57q0 23 17 40t40 17t40 -17t17 -40t-17 -40t-40 -17t-40 17t-17 40zM246 449q0 23 17 40t40 17t40 -17t17 -40t-17 -40t-40 -17t-40 17t-17 40zM556 279v-52h-506v52h506z" />
    <glyph glyph-name="oslash" unicode="&#xf8;" 
d="M395 391q-17 27 -46 43.5t-71 16.5q-44 0 -74 -18t-48 -48.5t-25.5 -69.5t-7.5 -81q0 -34 4.5 -65.5t15.5 -58.5zM35 234q0 68 21.5 115.5t56.5 77t78.5 43t86.5 13.5q40 0 80 -11t75 -37q23 25 43.5 48t26.5 34q10 -15 25 -22q-11 -8 -31 -29t-44 -48q32 -32 50 -76
t18 -108q0 -68 -21.5 -115.5t-56.5 -77t-78 -41.5t-87 -12q-42 0 -84 11t-77 39q-23 -26 -43.5 -47t-31.5 -35q-11 15 -25 21q4 3 12.5 11t19 18.5t22.5 24t24 27.5q-27 31 -43.5 73.5t-16.5 102.5zM156 83q18 -30 47.5 -48t74.5 -18q44 0 74 18t48 48.5t25.5 69.5t7.5 81
q0 37 -5.5 71.5t-19.5 62.5z" />
    <glyph glyph-name="ugrave" unicode="&#xf9;" 
d="M158 653q-12 8 -24 18.5t-12 28.5q0 16 11.5 24t21.5 8q21 0 45 -24l147 -149h-42zM76 149q0 53 1.5 90.5t1.5 74.5q0 35 -0.5 76t-1.5 83q25 -5 42 -5q16 0 41 5q-5 -60 -7.5 -131.5t-2.5 -146.5q0 -52 9 -79.5t22 -41.5q14 -16 35.5 -26.5t50.5 -10.5q42 0 70 18.5
t41 45.5q7 17 11 29t6.5 32t3 54t0.5 93v84q0 22 -0.5 42t-1.5 38q11 -2 21 -3.5t21 -1.5t21 1.5t20 3.5q-5 -78 -6 -150.5t-1 -153.5q0 -45 1 -88t3 -83q-20 2 -39 2t-39 -2q1 9 1.5 19t0.5 21v43h-2q-26 -48 -67 -70.5t-89 -22.5q-78 0 -122.5 41.5t-44.5 119.5z" />
    <glyph glyph-name="uacute" unicode="&#xfa;" 
d="M357 708q24 24 45 24q10 0 21.5 -8t11.5 -24q0 -18 -12 -28.5t-24 -18.5l-147 -94h-42zM76 149q0 53 1.5 90.5t1.5 74.5q0 35 -0.5 76t-1.5 83q25 -5 42 -5q16 0 41 5q-5 -60 -7.5 -131.5t-2.5 -146.5q0 -52 9 -79.5t22 -41.5q14 -16 35.5 -26.5t50.5 -10.5q42 0 70 18.5
t41 45.5q7 17 11 29t6.5 32t3 54t0.5 93v84q0 22 -0.5 42t-1.5 38q11 -2 21 -3.5t21 -1.5t21 1.5t20 3.5q-5 -78 -6 -150.5t-1 -153.5q0 -45 1 -88t3 -83q-20 2 -39 2t-39 -2q1 9 1.5 19t0.5 21v43h-2q-26 -48 -67 -70.5t-89 -22.5q-78 0 -122.5 41.5t-44.5 119.5z" />
    <glyph glyph-name="ucircumflex" unicode="&#xfb;" 
d="M159 559h-37l123 167h67l123 -167h-37l-120 105zM76 149q0 53 1.5 90.5t1.5 74.5q0 35 -0.5 76t-1.5 83q25 -5 42 -5q16 0 41 5q-5 -60 -7.5 -131.5t-2.5 -146.5q0 -52 9 -79.5t22 -41.5q14 -16 35.5 -26.5t50.5 -10.5q42 0 70 18.5t41 45.5q7 17 11 29t6.5 32t3 54
t0.5 93v84q0 22 -0.5 42t-1.5 38q11 -2 21 -3.5t21 -1.5t21 1.5t20 3.5q-5 -78 -6 -150.5t-1 -153.5q0 -45 1 -88t3 -83q-20 2 -39 2t-39 -2q1 9 1.5 19t0.5 21v43h-2q-26 -48 -67 -70.5t-89 -22.5q-78 0 -122.5 41.5t-44.5 119.5z" />
    <glyph glyph-name="udieresis" unicode="&#xfc;" 
d="M129 637q0 21 15 36t36 15t36 -15t15 -36t-15 -36t-36 -15t-36 15t-15 36zM326 637q0 21 15 36t36 15t36 -15t15 -36t-15 -36t-36 -15t-36 15t-15 36zM76 149q0 53 1.5 90.5t1.5 74.5q0 35 -0.5 76t-1.5 83q25 -5 42 -5q16 0 41 5q-5 -60 -7.5 -131.5t-2.5 -146.5
q0 -52 9 -79.5t22 -41.5q14 -16 35.5 -26.5t50.5 -10.5q42 0 70 18.5t41 45.5q7 17 11 29t6.5 32t3 54t0.5 93v84q0 22 -0.5 42t-1.5 38q11 -2 21 -3.5t21 -1.5t21 1.5t20 3.5q-5 -78 -6 -150.5t-1 -153.5q0 -45 1 -88t3 -83q-20 2 -39 2t-39 -2q1 9 1.5 19t0.5 21v43h-2
q-26 -48 -67 -70.5t-89 -22.5q-78 0 -122.5 41.5t-44.5 119.5z" />
    <glyph glyph-name="yacute" unicode="&#xfd;" horiz-adv-x="500" 
d="M329 708q24 24 45 24q10 0 21.5 -8t11.5 -24q0 -18 -12 -28.5t-24 -18.5l-147 -94h-42zM222 -3q-11 27 -28.5 70t-37.5 90.5t-41 97t-39.5 93t-32.5 76.5t-21 49q13 -2 24 -3.5t22 -1.5t22 1.5t24 3.5q31 -96 69 -190t80 -194q42 88 80.5 188t68.5 196q20 -5 33 -5t33 5
q-7 -14 -22.5 -47.5t-37 -80t-47 -103t-52 -116t-52.5 -118t-48 -111t-38.5 -95t-24.5 -67.5q-20 5 -34 5t-34 -5q79 131 134 262z" />
    <glyph glyph-name="thorn" unicode="&#xfe;" 
d="M426 238q0 60 -12.5 99t-32 62.5t-44.5 32.5t-49 9q-40 0 -68.5 -17t-46.5 -45.5t-26 -67t-8 -81.5q0 -208 146 -208q36 0 62.5 16.5t44 46t26 69t8.5 84.5zM65 464q0 34 -0.5 74t-1.5 79t-2.5 74.5t-3.5 60.5q28 -5 45 -5t45 5q-2 -25 -3.5 -60.5t-2.5 -74.5t-1.5 -79
t-0.5 -74v-89h2q7 16 20 34.5t33.5 35t49.5 27.5t66 11q38 0 75 -14.5t65.5 -44.5t46 -76.5t17.5 -110.5t-19 -111t-49.5 -78t-69.5 -45.5t-78 -14.5q-110 0 -157 95h-2v-63q0 -32 0.5 -71.5t1.5 -78.5t2.5 -74.5t3.5 -60.5q-28 5 -45 5t-45 -5q2 25 3.5 60.5t2.5 74.5
t1.5 78.5t0.5 71.5v444z" />
    <glyph glyph-name="ydieresis" unicode="&#xff;" horiz-adv-x="500" 
d="M101 637q0 21 15 36t36 15t36 -15t15 -36t-15 -36t-36 -15t-36 15t-15 36zM298 637q0 21 15 36t36 15t36 -15t15 -36t-15 -36t-36 -15t-36 15t-15 36zM222 -3q-11 27 -28.5 70t-37.5 90.5t-41 97t-39.5 93t-32.5 76.5t-21 49q13 -2 24 -3.5t22 -1.5t22 1.5t24 3.5
q31 -96 69 -190t80 -194q42 88 80.5 188t68.5 196q20 -5 33 -5t33 5q-7 -14 -22.5 -47.5t-37 -80t-47 -103t-52 -116t-52.5 -118t-48 -111t-38.5 -95t-24.5 -67.5q-20 5 -34 5t-34 -5q79 131 134 262z" />
    <glyph glyph-name="dotlessi" unicode="&#x131;" horiz-adv-x="278" 
d="M102 286q0 45 -1.5 94.5t-6.5 92.5q28 -5 45 -5t45 5q-5 -43 -6.5 -92.5t-1.5 -94.5v-104q0 -45 1.5 -94.5t6.5 -89.5q-23 2 -45 2t-45 -2q5 40 6.5 89.5t1.5 94.5v104v0z" />
    <glyph glyph-name="Lslash" unicode="&#x141;" horiz-adv-x="500" 
d="M98 426q0 66 -2.5 129.5t-5.5 129.5q13 -2 25 -3.5t24 -1.5t24 1.5t25 3.5q-3 -66 -5.5 -129.5t-2.5 -129.5v-39q24 14 49.5 30.5t54.5 35.5q4 -10 9 -19t10 -17q-21 -11 -53 -29t-70 -40v-90q0 -72 1 -122.5t2 -93.5q71 0 136 1.5t140 11.5q-5 -18 -5 -30q0 -11 5 -27
q-46 2 -92 2h-92h-92.5t-92.5 -2q3 62 5.5 126t2.5 130v43q-29 -17 -51 -31.5t-30 -22.5q-7 17 -19 37q25 15 50 29l50 28v89v0z" />
    <glyph glyph-name="lslash" unicode="&#x142;" horiz-adv-x="278" 
d="M102 327q-23 -15 -43 -28t-28 -18q-4 8 -8 15t-11 14q20 12 43.5 26t46.5 29v99q0 34 -0.5 74t-1.5 79t-2.5 74.5t-3.5 60.5q28 -5 45 -5t45 5q-2 -25 -3.5 -60.5t-2.5 -74.5t-1.5 -79t-0.5 -74v-51q22 14 39.5 25.5t32.5 22.5q0 -8 5.5 -16.5t12.5 -14.5
q-12 -8 -34.5 -20.5t-55.5 -33.5v-93q0 -34 0.5 -74t1.5 -79t2.5 -74t3.5 -58q-23 2 -45 2t-45 -2q2 23 3.5 58t2.5 74t1.5 79t0.5 74v44v0z" />
    <glyph glyph-name="OE" unicode="&#x152;" horiz-adv-x="1000" 
d="M140 340q0 -83 21 -143.5t56.5 -100t83 -58.5t100.5 -19q60 0 108 23t82 65.5t52 101.5t18 131q0 88 -19 149t-52.5 99.5t-79 55.5t-98.5 17q-57 0 -106.5 -19t-86.5 -58.5t-58 -100t-21 -143.5zM735 238q0 -49 1.5 -98t3.5 -98q109 0 166 3.5t81 7.5q-2 -8 -3.5 -14.5
t-1.5 -14.5t1.5 -14.5t3.5 -11.5q-42 2 -84 2h-84h-84.5t-86.5 -2q2 22 3.5 46t1.5 49l-2 2q-17 -18 -40 -37.5t-54.5 -36t-73 -26.5t-97.5 -10q-71 0 -134 22.5t-109.5 67t-73.5 108.5t-27 145q0 90 27.5 159t75.5 116t114 71t144 24q63 0 107.5 -13t74 -31t46 -36.5
t25.5 -30.5l2 2q0 24 -1 48t-3 48q42 -2 82 -3.5t82 -1.5t81 1.5t81 3.5q-5 -18 -5 -31t5 -31q-15 3 -30.5 5.5t-41 5t-65.5 3.5t-103 1q-2 -45 -3.5 -87.5t-1.5 -87.5v-82q62 0 99.5 0.5t61 1.5t37.5 2.5t27 2.5q-5 -17 -5 -28t5 -28q-14 1 -28 2.5t-37.5 2.5t-61 1.5
t-98.5 0.5v-101z" />
    <glyph glyph-name="oe" unicode="&#x153;" horiz-adv-x="889" 
d="M655 451q-37 0 -62.5 -17t-42 -42.5t-25 -56t-10.5 -57.5q31 -1 64.5 -2t65.5 -1q33 0 67 1t66 2q0 27 -4.5 57t-18 56t-37.5 43t-63 17zM653 483q53 0 91.5 -16.5t64.5 -44t38.5 -64.5t12.5 -79q0 -10 -0.5 -19.5t-1.5 -19.5q-54 1 -107 2t-107 1q-33 0 -65.5 -1
t-65.5 -2q-1 -5 -1 -15v-13q0 -39 11.5 -73t33.5 -58.5t54 -39t74 -14.5q20 0 41 5.5t41 15t37.5 22.5t30.5 28l5 -3l-6 -49q-30 -24 -74.5 -41t-92.5 -17q-63 0 -112.5 22t-81.5 64q-35 -48 -86.5 -67t-108.5 -19q-43 0 -86.5 12t-78.5 41.5t-56.5 77t-21.5 115.5
t21.5 115.5t56.5 77t78.5 43t86.5 13.5q55 0 107 -20.5t86 -66.5q29 42 74 64.5t108 22.5zM434 234q0 42 -7.5 81t-25.5 69.5t-48 48.5t-75 18q-44 0 -74 -18t-48 -48.5t-25.5 -69.5t-7.5 -81t7.5 -81t25.5 -69.5t48 -48.5t74 -18q45 0 75 18t48 48.5t25.5 69.5t7.5 81z" />
    <glyph glyph-name="Scaron" unicode="&#x160;" horiz-adv-x="500" 
d="M417 898l-123 -167h-67l-123 167h37l120 -105l119 105h37zM76 128q8 -18 21.5 -36.5t33 -33.5t45.5 -24.5t58 -9.5q33 0 59.5 11.5t45 31t28.5 46t10 56.5q0 46 -23.5 73t-58.5 45t-75.5 33t-75.5 37.5t-58.5 57.5t-23.5 94q0 42 15 76.5t43.5 59.5t68.5 39t90 14
q48 0 83 -11.5t65 -35.5q-9 -17 -15 -36t-12 -48h-12q-5 14 -13.5 30.5t-23 30.5t-34.5 23.5t-48 9.5t-51.5 -9t-41 -25.5t-27 -39.5t-9.5 -50q0 -47 23.5 -74t58.5 -45.5t75.5 -33t75.5 -35.5t58.5 -54t23.5 -88q0 -46 -16.5 -87t-48 -71.5t-77 -47t-103.5 -16.5
q-62 0 -100.5 16.5t-64.5 37.5q9 23 12.5 41.5t6.5 47.5h12z" />
    <glyph glyph-name="scaron" unicode="&#x161;" horiz-adv-x="389" 
d="M351 726l-123 -167h-67l-123 167h37l120 -105l119 105h37zM71 91q5 -10 15.5 -22t25 -22.5t33 -17.5t39.5 -7q19 0 36.5 6t31 17t21.5 28t8 39q0 31 -17.5 47.5t-43.5 27t-57 18.5t-57 22.5t-43.5 38.5t-17.5 66q0 33 11 60.5t32 47.5t52 31.5t71 11.5q37 0 62.5 -10
t48.5 -18q-8 -15 -15 -37t-9 -34h-12q-8 24 -31 43t-57 19q-15 0 -30 -5t-27 -15t-20 -26t-8 -38q0 -32 17.5 -49.5t43.5 -27.5t57 -17.5t57 -21t43.5 -37.5t17.5 -66q0 -29 -12.5 -57t-36 -50.5t-56.5 -35t-75 -12.5q-46 0 -77 9t-52 21q6 13 12.5 35.5t6.5 37.5h12z" />
    <glyph glyph-name="Ydieresis" unicode="&#x178;" horiz-adv-x="611" 
d="M166 809q0 21 15 36t36 15t36 -15t15 -36t-15 -36t-36 -15t-36 15t-15 36zM363 809q0 21 15 36t36 15t36 -15t15 -36t-15 -36t-36 -15t-36 15t-15 36zM265 279q-10 17 -29.5 49.5t-43 72t-49.5 83t-49.5 83t-42.5 71t-29 47.5q14 -2 27.5 -3.5t27.5 -1.5t27.5 1.5
t27.5 3.5q45 -87 91.5 -171t98.5 -175q23 36 48 79t50 88t48 90.5t43 88.5q25 -5 39 -5t39 5q-48 -73 -86 -132t-67 -107t-51 -86.5t-38 -69.5q0 -37 0.5 -79t1.5 -82.5t2.5 -75t3.5 -55.5q-23 2 -49 2t-49 -2q6 52 7 126t1 155z" />
    <glyph glyph-name="Zcaron" unicode="&#x17d;" horiz-adv-x="611" 
d="M462 898l-123 -167h-67l-123 167h37l120 -105l119 105h37zM23 12q39 54 82.5 116t87.5 124.5t86 123t77 112t61 90t39 58.5q-18 1 -36 1.5t-34 0.5q-36 0 -80 -1t-88.5 -3.5t-85 -5t-68.5 -5.5q5 18 5 31t-5 31q25 -2 63.5 -3t92.5 -1q26 -1 56 -1h62h143q27 0 54 1.5
t53 3.5v-18q-20 -21 -56 -69t-79.5 -109t-90.5 -129t-89 -130t-74.5 -111.5t-47.5 -73.5q24 -2 43.5 -2.5t39.5 -0.5q38 0 88.5 1.5t100.5 4.5t94.5 6t70.5 6q-2 -9 -3.5 -17t-1.5 -16q0 -13 5 -29q-36 1 -66.5 1.5t-58.5 0.5h-55h-55h-89h-96.5t-86.5 -0.5t-58 -1.5v14z
" />
    <glyph glyph-name="zcaron" unicode="&#x17e;" horiz-adv-x="500" 
d="M407 726l-123 -167h-67l-123 167h37l120 -105l119 105h37zM34 9q43 52 88.5 111t88.5 116t80.5 108t64.5 87q-7 0 -39.5 -1t-74.5 -3.5t-85.5 -5t-71.5 -5.5q3 14 3 28q0 13 -3 29q32 -3 94 -4t156 -1h38q18 0 33 1t29.5 2t30.5 2v-15q-40 -52 -87.5 -114.5t-92.5 -122
t-82 -109t-56 -75.5q41 0 75.5 0.5t69.5 2t75 4t93 7.5q-4 -12 -4 -28t4 -25q-63 2 -125 2h-125h-88.5t-88.5 -2v11z" />
    <glyph glyph-name="florin" unicode="&#x192;" 
d="M55 -113q8 -5 20 -10.5t25 -5.5q20 0 33 8.5t21.5 24t14 37.5t10.5 50l63 368h-58q-14 0 -26.5 -0.5t-22.5 -1.5q3 9 6 21t3 23q17 -2 46.5 -3.5t58.5 -1.5l12 51q9 36 25 76t39 73t54 54.5t71 21.5q6 0 16.5 -1.5t16.5 -3.5q-5 -15 -8 -37.5t-3 -44.5l-12 -4
q-8 11 -21.5 20t-30.5 9q-21 0 -37.5 -13.5t-23.5 -57.5l-24 -143q32 0 60.5 2t50.5 3q-4 -9 -7 -21t-3 -23q-11 1 -23.5 1.5t-26.5 0.5h-58l-39 -219q-20 -112 -47.5 -177.5t-59.5 -101t-66.5 -46t-69.5 -10.5q7 23 10.5 42t3.5 37l7 3v0z" />
    <glyph glyph-name="circumflex" unicode="&#x2c6;" horiz-adv-x="333" 
d="M47 559h-37l123 167h67l123 -167h-37l-120 105z" />
    <glyph glyph-name="caron" unicode="&#x2c7;" horiz-adv-x="333" 
d="M323 726l-123 -167h-67l-123 167h37l120 -105l119 105h37z" />
    <glyph glyph-name="breve" unicode="&#x2d8;" horiz-adv-x="333" 
d="M58 717q8 -46 32.5 -71t75.5 -25q52 0 74.5 25t34.5 71h32q0 -32 -9 -60.5t-26.5 -50.5t-43.5 -34.5t-61 -12.5t-61.5 12.5t-44 34.5t-26.5 50.5t-9 60.5h32v0z" />
    <glyph glyph-name="dotaccent" unicode="&#x2d9;" horiz-adv-x="333" 
d="M116 634q0 21 15 36t36 15t36 -15t15 -36t-15 -36t-36 -15t-36 15t-15 36z" />
    <glyph glyph-name="ring" unicode="&#x2da;" horiz-adv-x="333" 
d="M106 645q0 -25 17.5 -42.5t42.5 -17.5q26 0 43.5 17.5t17.5 42.5t-17.5 42.5t-42.5 17.5q-26 0 -43.5 -17.5t-17.5 -42.5zM64 645q0 21 8 39.5t22 32.5t33 22t40 8t39.5 -8t32.5 -22t22 -32.5t8 -39.5t-8 -39.5t-22 -32.5t-33 -22t-40 -8t-39.5 8t-32.5 22t-22 32.5
t-8 39.5z" />
    <glyph glyph-name="ogonek" unicode="&#x2db;" horiz-adv-x="333" 
d="M265 0q-29 -23 -46.5 -42t-27.5 -34t-13 -27t-3 -22q0 -33 21.5 -46t46.5 -13q8 0 16 2t15 4l11 -33q-20 -10 -58 -10q-22 0 -42.5 5.5t-36.5 16t-25.5 26.5t-9.5 37q0 56 112 136h40v0z" />
    <glyph glyph-name="tilde" unicode="&#x2dc;" horiz-adv-x="333" 
d="M2 584q3 18 10.5 36t20.5 33t31 24.5t42 9.5q17 0 31 -5t42 -18q28 -14 40.5 -18.5t25.5 -4.5q23 0 37 15t20 35h29q-2 -12 -8 -30t-18.5 -35.5t-32.5 -29.5t-50 -12q-14 0 -31.5 5t-40.5 18q-26 14 -39.5 18.5t-25.5 4.5q-23 0 -33.5 -10t-19.5 -36h-30v0z" />
    <glyph glyph-name="hungarumlaut" unicode="&#x2dd;" horiz-adv-x="333" 
d="M344 708q24 24 45 24q10 0 21.5 -8t11.5 -24q0 -18 -12 -28.5t-24 -18.5l-147 -94h-42zM144 708q24 24 45 24q10 0 21.5 -8t11.5 -24q0 -18 -12 -28.5t-24 -18.5l-147 -94h-39z" />
    <glyph glyph-name="gravecmb" unicode="&#x300;" horiz-adv-x="0" 
d="M-284 653q-12 8 -24 18.5t-12 28.5q0 16 11.5 24t21.5 8q21 0 45 -24l147 -149h-42l-147 94v0z" />
    <glyph glyph-name="acutecmb" unicode="&#x301;" horiz-adv-x="0" 
d="M-85 708q24 24 45 24q10 0 21.5 -8t11.5 -24q0 -18 -12 -28.5t-24 -18.5l-147 -94h-42l147 149v0z" />
    <glyph glyph-name="circumflexcmb" unicode="&#x302;" horiz-adv-x="0" 
d="M-283 559h-37l123 167h67l123 -167h-37l-120 105z" />
    <glyph glyph-name="tildecmb" unicode="&#x303;" horiz-adv-x="0" 
d="M-328 584q3 18 10.5 36t20.5 33t31 24.5t42 9.5q17 0 31 -5t42 -18q28 -14 40.5 -18.5t25.5 -4.5q23 0 37 15t20 35h29q-2 -12 -8 -30t-18.5 -35.5t-32.5 -29.5t-50 -12q-14 0 -31.5 5t-40.5 18q-26 14 -39.5 18.5t-25.5 4.5q-23 0 -33.5 -10t-19.5 -36h-30v0z" />
    <glyph glyph-name="macroncmb" unicode="&#x304;" horiz-adv-x="0" 
d="M-27 656v-52h-273v52h273z" />
    <glyph glyph-name="brevecmb" unicode="&#x306;" horiz-adv-x="0" 
d="M-272 717q8 -46 32.5 -71t75.5 -25q52 0 74.5 25t34.5 71h32q0 -32 -9 -60.5t-26.5 -50.5t-43.5 -34.5t-61 -12.5t-61.5 12.5t-44 34.5t-26.5 50.5t-9 60.5h32v0z" />
    <glyph glyph-name="dotaccentcmb" unicode="&#x307;" horiz-adv-x="0" 
d="M-214 634q0 21 15 36t36 15t36 -15t15 -36t-15 -36t-36 -15t-36 15t-15 36z" />
    <glyph glyph-name="dieresiscmb" unicode="&#x308;" horiz-adv-x="0" 
d="M-313 637q0 21 15 36t36 15t36 -15t15 -36t-15 -36t-36 -15t-36 15t-15 36zM-116 637q0 21 15 36t36 15t36 -15t15 -36t-15 -36t-36 -15t-36 15t-15 36z" />
    <glyph glyph-name="ringcmb" unicode="&#x30a;" horiz-adv-x="0" 
d="M-224 645q0 -25 17.5 -42.5t42.5 -17.5q26 0 43.5 17.5t17.5 42.5t-17.5 42.5t-42.5 17.5q-26 0 -43.5 -17.5t-17.5 -42.5zM-266 645q0 21 8 39.5t22 32.5t33 22t40 8t39.5 -8t32.5 -22t22 -32.5t8 -39.5t-8 -39.5t-22 -32.5t-33 -22t-40 -8t-39.5 8t-32.5 22t-22 32.5
t-8 39.5z" />
    <glyph glyph-name="hungarumlautcmb" unicode="&#x30b;" horiz-adv-x="0" 
d="M14 708q24 24 45 24q10 0 21.5 -8t11.5 -24q0 -18 -12 -28.5t-24 -18.5l-147 -94h-42zM-186 708q24 24 45 24q10 0 21.5 -8t11.5 -24q0 -18 -12 -28.5t-24 -18.5l-147 -94h-39z" />
    <glyph glyph-name="caroncmb" unicode="&#x30c;" horiz-adv-x="0" 
d="M-7 726l-123 -167h-67l-123 167h37l120 -105l119 105h37z" />
    <glyph glyph-name="cedillacmb" unicode="&#x327;" horiz-adv-x="0" 
d="M-287 -172q11 -5 30 -8.5t42 -3.5q25 0 42.5 11t17.5 31q0 22 -15 31t-36 9q-33 0 -43 -7l-7 7l41 102h35l-25 -70q6 2 12.5 3.5t16.5 1.5q39 0 61 -19.5t22 -51.5q0 -21 -9.5 -37t-26 -26.5t-38 -16t-45.5 -5.5q-31 0 -53 6t-36 11l14 32v0z" />
    <glyph glyph-name="ogonekcmb" unicode="&#x328;" horiz-adv-x="0" 
d="M-65 0q-29 -23 -46.5 -42t-27.5 -34t-13 -27t-3 -22q0 -33 21.5 -46t46.5 -13q8 0 16 2t15 4l11 -33q-20 -10 -58 -10q-22 0 -42.5 5.5t-36.5 16t-25.5 26.5t-9.5 37q0 56 112 136h40v0z" />
    <glyph glyph-name="soliduslongoverlaycmb" unicode="&#x338;" horiz-adv-x="0" 
d="M-24 703q17 -5 26 -5t26 5l-276 -723q-17 5 -26 5q-6 0 -23 -5l273 723v0z" />
    <glyph glyph-name="endash" unicode="&#x2013;" horiz-adv-x="500" 
d="M500 254v-47h-500v47h500z" />
    <glyph glyph-name="emdash" unicode="&#x2014;" horiz-adv-x="1000" 
d="M1000 254v-47h-1000v47h1000z" />
    <glyph glyph-name="quoteleft" unicode="&#x2018;" horiz-adv-x="278" 
d="M151 448q-4 -13 -14 -25.5t-30 -12.5q-12 0 -24.5 8t-12.5 26q0 12 5 22l10 20l125 212l18 -7l-77 -243v0z" />
    <glyph glyph-name="quoteright" unicode="&#x2019;" horiz-adv-x="278" 
d="M127 660q4 13 14 25.5t30 12.5q12 0 24.5 -8t12.5 -26q0 -12 -5 -22l-10 -20l-125 -212l-18 7l77 243v0z" />
    <glyph glyph-name="quotesinglbase" unicode="&#x201a;" horiz-adv-x="278" 
d="M107 75q4 13 14 25.5t30 12.5q12 0 24.5 -8t12.5 -26q0 -12 -5 -22l-10 -20l-125 -209l-18 7l77 240v0z" />
    <glyph glyph-name="quotedblleft" unicode="&#x201c;" horiz-adv-x="444" 
d="M145 448q-4 -13 -14 -25.5t-30 -12.5q-12 0 -24.5 8t-12.5 26q0 12 5 22l10 20l125 212l18 -7zM317 448q-4 -13 -14 -25.5t-30 -12.5q-12 0 -24.5 8t-12.5 26q0 12 5 22l10 20l125 212l18 -7z" />
    <glyph glyph-name="quotedblright" unicode="&#x201d;" horiz-adv-x="444" 
d="M127 660q4 13 14 25.5t30 12.5q12 0 24.5 -8t12.5 -26q0 -12 -5 -22l-10 -20l-125 -212l-18 7zM299 660q4 13 14 25.5t30 12.5q12 0 24.5 -8t12.5 -26q0 -12 -5 -22l-10 -20l-125 -212l-18 7z" />
    <glyph glyph-name="quotedblbase" unicode="&#x201e;" horiz-adv-x="444" 
d="M127 75q4 13 14 25.5t30 12.5q12 0 24.5 -8t12.5 -26q0 -12 -5 -22l-10 -20l-125 -209l-18 7zM299 75q4 13 14 25.5t30 12.5q12 0 24.5 -8t12.5 -26q0 -12 -5 -22l-10 -20l-125 -209l-18 7z" />
    <glyph glyph-name="dagger" unicode="&#x2020;" horiz-adv-x="500" 
d="M216 513q0 26 -0.5 51.5t-1.5 48t-2.5 41.5t-3.5 31q25 -5 42 -5t42 5q-4 -24 -6 -72.5t-2 -99.5v-64q45 0 87 1t87 7q-5 -22 -5 -37q0 -14 5 -36q-45 6 -87 7t-87 1q0 -100 3 -198t5 -196q-20 2 -42 2t-42 -2q2 98 5 196t3 198q-45 0 -87 -1t-87 -7q5 22 5 36
q0 15 -5 37q45 -6 87 -7t87 -1v64z" />
    <glyph glyph-name="daggerdbl" unicode="&#x2021;" horiz-adv-x="500" 
d="M219 340q0 26 -1 50.5t-1 50.5q-45 0 -87.5 -1t-87.5 -7q5 22 5 36q0 15 -5 37q45 -6 87 -7t87 -1q0 30 -1 72.5t-7 114.5q25 -5 42 -5t42 5q-6 -72 -7 -114.5t-1 -72.5q45 0 87 1t87 7q-5 -22 -5 -37q0 -14 5 -36q-45 6 -87.5 7t-87.5 1q0 -26 -1 -50.5t-1 -50.5
t1 -50.5t1 -50.5q45 0 87.5 1t87.5 7q-5 -22 -5 -37q0 -14 5 -36q-45 6 -87 7t-87 1q0 -30 1 -72.5t7 -111.5q-20 2 -42 2t-42 -2q6 69 7 111.5t1 72.5q-45 0 -87 -1t-87 -7q5 22 5 36q0 15 -5 37q45 -6 87.5 -7t87.5 -1q0 26 1 50.5t1 50.5z" />
    <glyph glyph-name="bullet" unicode="&#x2022;" horiz-adv-x="606" 
d="M133 340q0 35 13.5 66t36.5 54t54 36.5t66 13.5t66 -13.5t54 -36.5t36.5 -54t13.5 -66t-13.5 -66t-36.5 -54t-54 -36.5t-66 -13.5t-66 13.5t-54 36.5t-36.5 54t-13.5 66z" />
    <glyph glyph-name="ellipsis" unicode="&#x2026;" horiz-adv-x="1000" 
d="M776 45q0 23 17 40t40 17t40 -17t17 -40t-17 -38.5t-40 -15.5t-40 15.5t-17 38.5zM443 45q0 23 17 40t40 17t40 -17t17 -40t-17 -38.5t-40 -15.5t-40 15.5t-17 38.5zM110 45q0 23 17 40t40 17t40 -17t17 -40t-17 -38.5t-40 -15.5t-40 15.5t-17 38.5z" />
    <glyph glyph-name="perthousand" unicode="&#x2030;" horiz-adv-x="1000" 
d="M509 695q15 -5 24 -5q8 0 23 5l-388 -731q-15 5 -23 5q-9 0 -24 -5zM101 512q0 -60 15 -98t57 -38t57 38t15 98t-15 98t-57 38t-57 -38t-15 -98zM33 512q0 47 13 77.5t33.5 49t45.5 26t48 7.5t48 -7.5t45.5 -26t33.5 -49t13 -77.5q0 -46 -13 -77t-33.5 -49.5t-45.5 -26
t-48 -7.5t-48 7.5t-45.5 26t-33.5 49.5t-13 77zM755 144q0 -60 15 -98t57 -38t57 38t15 98t-15 98t-57 38t-57 -38t-15 -98zM687 144q0 47 13 77.5t33.5 49t45.5 26t48 7.5t48 -7.5t45.5 -26t33.5 -49t13 -77.5q0 -46 -13 -77t-33.5 -49t-45.5 -24.5t-48 -6.5t-48 6.5
t-45.5 24.5t-33.5 49t-13 77zM431 144q0 -60 15 -98t57 -38t57 38t15 98t-15 98t-57 38t-57 -38t-15 -98zM363 144q0 47 13 77.5t33.5 49t45.5 26t48 7.5t48 -7.5t45.5 -26t33.5 -49t13 -77.5q0 -46 -13 -77t-33.5 -49t-45.5 -24.5t-48 -6.5t-48 6.5t-45.5 24.5t-33.5 49
t-13 77z" />
    <glyph glyph-name="guilsinglleft" unicode="&#x2039;" horiz-adv-x="333" 
d="M211 419q5 -10 15 -17.5t22 -9.5l-111 -159l106 -166q-12 -2 -23 -9.5t-15 -16.5l-120 191l126 187v0z" />
    <glyph glyph-name="guilsinglright" unicode="&#x203a;" horiz-adv-x="333" 
d="M90 397q12 2 23 9.5t15 16.5l120 -191l-126 -187q-5 10 -15 17.5t-22 9.5l111 159l-106 166v0z" />
    <glyph glyph-name="fraction" unicode="&#x2044;" horiz-adv-x="167" 
d="M199 684q15 -5 23 -5t23 5l-274 -709q-15 5 -23 5t-23 -5l274 709v0z" />
    <glyph glyph-name="Euro" unicode="&#x20ac;" 
d="M548 622q-8 -20 -13 -39.5t-10 -39.5l-15 -1q-24 42 -63.5 64.5t-76.5 22.5q-65 0 -114 -55t-65 -169h166q28 0 56 0.5t51 5.5q-5 -10 -9.5 -28t-6.5 -29q-21 4 -47 5t-50 1h-164q-1 -13 -1.5 -26.5t-0.5 -27.5v-8h142q28 0 56 0.5t51 5.5q-5 -10 -9.5 -28t-6.5 -29
q-21 4 -47 5t-50 1h-133q12 -105 62 -163.5t119 -58.5q40 0 80 19.5t75 57.5l8 -12q-6 -27 -9 -58q-12 -11 -31.5 -20t-42.5 -15t-47.5 -9.5t-47.5 -3.5q-51 0 -94.5 16.5t-77.5 50.5t-56 83.5t-30 112.5q-51 -1 -74 -6q11 26 15 57q8 -2 21.5 -3t33.5 -2v20q0 11 0.5 21
t1.5 20q-49 -1 -72 -6q11 26 15 57q8 -2 24 -3t39 -2q11 57 36 105.5t60.5 84t80.5 56t96 20.5q44 0 92 -14.5t83 -35.5z" />
    <glyph glyph-name="trademark" unicode="&#x2122;" horiz-adv-x="950" 
d="M159 653q-32 0 -64.5 -1.5t-64.5 -3.5q5 12 5 19q0 6 -5 18q39 -2 77.5 -3.5t77.5 -1.5t77.5 1.5t77.5 3.5q-5 -12 -5 -18q0 -7 5 -19q-32 2 -64.5 3.5t-64.5 1.5v-141q0 -60 1.5 -118.5t3.5 -118.5q-18 5 -31 5t-31 -5q2 40 3.5 94t1.5 135v149zM650 460q32 57 64 115
t63 116h8l12 -127q3 -34 7.5 -72t9.5 -76.5t10 -74.5t10 -66q-17 5 -28 5q-8 0 -14.5 -1.5t-14.5 -3.5q-2 42 -4.5 90.5t-10.5 108.5l-14 108h-2l-42 -76q-16 -28 -33 -59.5t-32 -61.5t-27.5 -57t-20.5 -46h-8q-22 51 -50 101.5t-55 102.5l-48 91h-2l-13 -111
q-6 -48 -9.5 -95.5t-4.5 -95.5q-15 5 -23 5q-9 0 -24 -5q13 61 23.5 130.5t20.5 141.5l19 144h10q26 -57 55.5 -113t62.5 -116l52 -92h2z" />
    <glyph glyph-name="Omega" unicode="&#x2126;" horiz-adv-x="768" 
d="M35 0v163h16q5 -19 10.5 -31t13 -18.5t19 -8.5t29.5 -2h148v14q-78 22 -122 57q-44 36 -69.5 94t-25.5 120q0 74 39 143q40 69 115.5 106.5t175.5 37.5q102 0 175 -37q77 -38 115 -107q40 -67 40 -143q0 -59 -26 -120q-25 -59 -69 -93.5t-121 -57.5v-14h148q18 0 29.5 2
t19 8.5t12.5 18.5t10 31h17v-163h-296l16 142q59 22 90 64q51 71 51 183q0 126 -56 189t-152 63q-100 0 -150 -56q-63 -70 -63 -195q0 -72 19.5 -126t55.5 -85q22 -22 66 -37l15 -142h-295z" />
    <glyph glyph-name="partialdiff" unicode="&#x2202;" horiz-adv-x="494" 
d="M454 350q2 28 3.5 50.5t1.5 40.5q0 88 -46 136t-122 48q-52 0 -86.5 -19.5t-60.5 -58.5h-23q38 78 81.5 112.5t104.5 34.5q33 -1 65.5 -14t58 -41.5t41 -75t14.5 -114.5q0 -173 -75 -310q-85 -151 -214 -151q-76 0 -121 42.5t-45 117.5q0 44 13.5 85.5t35 76.5t50 62
t58.5 42q56 29 113 29q40 0 72.5 -15t53.5 -37q14 -14 27 -41zM445 307q-19 54 -56.5 82t-83.5 28q-44 0 -87 -31q-42 -30 -73 -106q-31 -74 -31 -152q0 -55 26.5 -85t68.5 -30q60 0 123 63q79 80 113 231z" />
    <glyph glyph-name="Delta" unicode="&#x2206;" horiz-adv-x="612" 
d="M13 0l306 677l280 -677h-586zM289 512l-215 -472h409z" />
    <glyph glyph-name="product" unicode="&#x220f;" horiz-adv-x="823" 
d="M217 655v-773q0 -42 18 -59t61 -17h18v-18h-292v18h18q43 0 61 17t18 59v718q0 40 -18 57.5t-61 17.5h-18v18h779v-18h-17q-43 0 -61 -17.5t-18 -57.5v-718q0 -42 18 -59t61 -17h17v-18h-292v18h17q43 0 61 17t18 59v773h-388z" />
    <glyph glyph-name="summation" unicode="&#x2211;" horiz-adv-x="713" 
d="M21 -212v18l327 436l-327 433v18h624l13 -164h-19q-8 67 -38 96t-84 29h-361l274 -370l-307 -410h399q37 0 75 13q28 9 46.5 32.5t30.5 74.5l19 -4l-31 -202h-641z" />
    <glyph glyph-name="minus" unicode="&#x2212;" horiz-adv-x="606" 
d="M556 279v-52h-506v52h506z" />
    <glyph glyph-name="radical" unicode="&#x221a;" horiz-adv-x="549" 
d="M548 913l-152 -949l-242 496l-97 -44l-16 31l146 74l198 -402l127 794h36z" />
    <glyph glyph-name="infinity" unicode="&#x221e;" horiz-adv-x="713" 
d="M319 326q33 77 72 105q41 30 109 30q78 0 133 -57q54 -55 54 -147q0 -88 -53 -147q-52 -58 -118 -58q-48 0 -90 36q-27 23 -74 104q-32 -61 -69 -87.5t-90 -26.5q-70 0 -118 50q-49 49 -49 130t45 130t105 49q43 0 74 -22q31 -21 69 -89zM366 227q18 -39 35.5 -64
t36 -39.5t38.5 -20t42 -5.5q30 0 56 11.5t44.5 32t29.5 50t11 65.5q0 73 -43 119q-42 47 -95 47q-34 0 -59 -17t-45 -55q-14 -25 -51 -124zM305 288q-24 54 -55 79.5t-76 25.5q-25 0 -47.5 -9.5t-38.5 -27t-25.5 -42.5t-9.5 -55q0 -67 34 -104q35 -39 78 -39q46 0 82 42
q23 27 58 130z" />
    <glyph glyph-name="integral" unicode="&#x222b;" horiz-adv-x="274" 
d="M106 721q2 38 8.5 69t16.5 55q13 33 36 49t45 16q25 0 43 -16.5t18 -36.5q0 -23 -12.5 -36.5t-31.5 -13.5q-18 0 -38 17q-10 10 -19 10q-8 0 -14 -7t-6 -24q0 -10 1.5 -27.5t3.5 -43.5q18 -201 18 -324q0 -17 -2 -88t-6 -200q-5 -141 -44 -191q-25 -33 -65 -33
q-26 0 -42 16.5t-16 42.5q0 22 12.5 33.5t31.5 11.5t33 -12q15 -16 25 -16q19 0 19 28q0 9 -1.5 23.5t-3.5 33.5q-7 71 -12 165q-6 122 -6 215l8 284v0z" />
    <glyph glyph-name="approxequal" unicode="&#x2248;" horiz-adv-x="549" 
d="M535 507q-2 -63 -36 -98t-82 -35q-27 0 -49 7q-13 4 -46.5 17t-87.5 35q-74 31 -108 31t-57.5 -21.5t-32.5 -67.5h-21q0 32 9.5 56t25.5 41t36.5 26t41.5 10q23 0 43 -7q26 -7 61 -20t81 -33q25 -11 44 -18t33 -11q14 -3 32 -3q37 0 62 23t30 68h21zM535 267
q-2 -63 -36 -98.5t-82 -35.5q-23 0 -74 15l-109 45q-74 31 -108 31t-57.5 -21t-32.5 -69h-21q0 33 9.5 57.5t25 41t35.5 25.5t42 10q22 0 44 -6q48 -14 142 -54q24 -11 43.5 -17.5t33.5 -10.5q11 -4 32 -4q37 0 62 23t30 68h21z" />
    <glyph glyph-name="notequal" unicode="&#x2260;" horiz-adv-x="549" 
d="M306 399l103 261h39l-101 -261h190v-45h-208l-70 -181h278v-46h-296l-103 -256h-39l102 256h-189v46h207l71 181h-278v45h294z" />
    <glyph glyph-name="lessequal" unicode="&#x2264;" horiz-adv-x="549" 
d="M12 343v40l524 222v-50l-464 -192l464 -193v-50zM537 -32v-45h-525v45h525z" />
    <glyph glyph-name="greaterequal" unicode="&#x2265;" horiz-adv-x="549" 
d="M536 382v-40l-524 -222v50l464 192l-464 193v50zM537 -32v-45h-525v45h525z" />
    <glyph glyph-name="lozenge" unicode="&#x25ca;" horiz-adv-x="494" 
d="M472 346l-204 -346h-54l-191 346l191 348h54zM76 346l166 -300l175 300l-175 301z" />
    <glyph glyph-name="apple" unicode="&#xf8ff;" horiz-adv-x="790" 
d="M408 588q20 0 71 17t87 17q60 0 107 -32q13 -10 26 -22t26 -28q-39 -34 -57 -60q-33 -46 -33 -103q0 -62 35 -112q34 -49 79 -63q-10 -30 -25 -61.5t-36 -63.5q-64 -95 -129 -95q-27 0 -71 16q-43 13 -75 13q-33 0 -72 -14q-42 -17 -66 -17q-76 0 -150 127
q-74 128 -74 252q0 114 56 187q57 72 143 72q37 0 89 -15q53 -15 69 -15zM561 790q0 -32 -15 -69t-46 -69q-29 -27 -55 -36q-19 -5 -51 -8q1 74 38.5 128.5t125.5 74.5q2 -7 2.5 -12t0.5 -9z" />
    </font>
</defs>
</svg>
